<svg xmlns="http://www.w3.org/2000/svg" height="40" viewBox="0 96 960 960" width="40"><path d="M76.615 903.693V844q0-26.231 13.513-44.743 13.513-18.513 38.744-31.052 49.666-24.461 108.41-39.231 58.744-14.769 118.205-14.769 59.462 0 117.949 14.769 58.487 14.77 108.667 39.231 24.718 12.539 38.487 31.052 13.769 18.512 13.769 44.743v59.693H76.615Zm278.872-284.872q-51.385 0-84.154-32.923-32.769-32.924-32.769-88.616h-8.462q-6.538 0-10.961-4.423t-4.423-10.962q0-6.025 4.423-10.705 4.423-4.679 10.961-4.679h8.462q1.026-28.59 11.949-52.308t34.513-45.59v38.154q0 5.718 4.192 9.654t9.91 3.936q5.872 0 9.731-3.936t3.859-9.654v-51.641q8.077-2.846 19.846-5.115t23.077-2.269q11.308 0 23.077 2.269 11.769 2.269 19.846 5.115v51.641q0 5.718 3.859 9.654t9.731 3.936q5.718 0 9.91-3.936t4.192-9.654v-38.154q24.359 21.872 34.488 45.59 10.128 23.718 11.666 52.308h8.462q6.538 0 10.961 4.679 4.424 4.68 4.424 10.705 0 6.539-4.424 10.962-4.423 4.423-10.961 4.423h-8.462q0 55.692-33.025 88.616-33.026 32.923-83.898 32.923Zm0-33.847q36.949 0 60.013-23.217 23.064-23.218 23.064-59.86H272.41q0 36.642 23.064 59.86 23.064 23.217 60.013 23.217Zm301.846 104.718-1.282-28.307q-7.692-2.308-16.705-7.629-9.013-5.32-14.936-11.089l-26.154 12.666-15.692-25.641 24.667-16.256q-1.846-4.692-2.103-9.051-.256-4.359-.256-8.539 0-4.692.256-8.41.257-3.718 2.103-9.18l-24.667-16.769 15.692-25.641 26.154 12.667q6.513-5.693 15.231-10.795 8.718-5.103 16.41-7.923L657.333 502h30.77l1.794 27.795q7.693 2.82 16.411 7.923 8.718 5.102 15.231 10.795l25.641-12.667 16.205 25.641-24.667 16.769q1.846 5.462 1.846 9.18V604.385q0 4.359-1.846 9.051l24.667 16.256-16.205 25.641-25.641-12.666q-5.924 5.769-14.936 11.089-9.013 5.321-16.706 7.629l-1.794 28.307h-30.77Zm15.385-55.436q16.205 0 27.564-11.102 11.359-11.103 11.359-27.308t-11.359-27.564q-11.359-11.359-27.564-11.359t-27.308 11.359q-11.102 11.359-11.102 27.564t11.102 27.308q11.103 11.102 27.308 11.102Zm86.256-166.666-3.538-29.129q-11.462-2.384-25.192-10.346-13.731-7.961-20.911-18.115l-30.513 13.282-14.974-25.487 26.975-18.923q-2-5.77-3.257-12.564-1.256-6.795-1.256-13.231 0-5.923 1.256-12.975 1.257-7.051 3.257-12.82l-26.975-18.41 14.974-25.488 30.513 12.77q7.18-10.154 20.911-18.193 13.73-8.038 25.192-9.756l3.538-29.128h29.129l3.538 29.128q11.462 1.718 25.192 9.756 13.731 8.039 21.424 18.193l30-12.77 14.974 25.488-26.974 18.41q2 5.769 3.256 12.82 1.256 7.052 1.256 12.975 0 6.436-1.256 13.231-1.256 6.794-3.256 12.564l26.974 18.923-14.974 25.487-30-13.282q-7.693 10.154-21.424 18.115-13.73 7.962-25.192 10.346l-3.538 29.129h-29.129Zm14.821-57.129q24.436 0 40.654-16.217 16.218-16.218 16.218-41.167 0-24.436-16.218-40.654-16.218-16.218-40.654-16.218-24.949 0-41.167 16.218t-16.218 40.654q0 24.949 16.218 41.167 16.218 16.217 41.167 16.217Z"/></svg>