<?xml version="1.0" encoding="utf-8"?>
<!-- Generator: Adobe Illustrator 26.3.1, SVG Export Plug-In . SVG Version: 6.00 Build 0)  -->
<svg version="1.1" id="Calque_1" xmlns="http://www.w3.org/2000/svg" xmlns:xlink="http://www.w3.org/1999/xlink" x="0px" y="0px"
	 viewBox="0 0 512 512" style="enable-background:new 0 0 512 512;" xml:space="preserve">
<style type="text/css">
	.st0{fill:#FFFFFF;}
	.st1{fill:#BE5554;}
	.st2{fill:#BE5555;}
	.st3{fill:#BF5857;}
	.st4{fill:#BF5757;}
	.st5{fill:#BF5756;}
	.st6{fill:#FEFEFD;}
	.st7{display:none;}
	.st8{display:inline;}
	.st9{fill:#FFFEFE;}
	.st10{fill:#BE5756;}
	.st11{fill:#BE5656;}
	.st12{fill:#C05A59;}
	.st13{fill:#FEFEFE;}
	.st14{fill:#FEFBFB;}
	.st15{fill:#FEFDFD;}
	.st16{fill:#BF5958;}
	.st17{fill:#BE5655;}
</style>
<g>
	<g>
		<path class="st0" d="M255.99,511.91c-83.94,0-167.89-0.02-251.83,0.09c-3.31,0-4.15-0.51-4.15-4.03
			C0.13,340.06,0.13,172.16,0,4.26C0,0.45,1.03,0,4.43,0.01C172.15,0.1,339.87,0.1,507.59,0c3.46,0,4.41,0.54,4.41,4.28
			c-0.12,167.74-0.12,335.47,0,503.21c0,3.92-1.06,4.52-4.68,4.51C423.55,511.89,339.77,511.91,255.99,511.91z M48.3,4.09
			c-8,0-15.99-0.07-23.99,0.02C12.92,4.23,4.25,12.64,4.15,23.9C4.01,40.06,4,56.22,4.16,72.38c0.11,11.01,8.74,19.39,19.81,19.66
			c2.16,0.05,4.36,0.25,6.49-0.04c4.45-0.6,5.76,0.89,5.75,5.56c-0.15,103.45-0.11,206.9-0.13,310.35c0,3.8,1.19,8.69-0.69,11.12
			c-2.03,2.62-7.15,0.58-10.91,0.91c-0.17,0.01-0.33,0-0.5,0c-11.07,0.26-19.71,8.63-19.83,19.64C4,455.75,4.01,471.91,4.15,488.07
			c0.09,11.07,8.62,19.69,19.65,19.8c16.16,0.16,32.32,0.16,48.47,0.01c11.06-0.1,19.48-8.65,19.79-19.69
			c0.06-2.16,0.3-4.38-0.04-6.49c-0.81-4.97,1.25-5.88,5.95-5.88c103.27,0.15,206.55,0.1,309.82,0.16c3.93,0,9.13-1.81,11.43,0.86
			c1.93,2.25,0.63,7.28,0.72,11.08c0.26,11.31,8.7,19.87,20.04,19.96c15.99,0.13,31.98,0.13,47.97,0
			c11.31-0.1,19.83-8.68,19.92-20.05c0.13-15.99,0.14-31.99-0.01-47.98c-0.1-11.31-8.72-19.69-20.08-19.9
			c-2-0.04-4.04-0.26-5.99,0.04c-4.75,0.74-6.01-0.92-6-5.83c0.16-103.28,0.11-206.57,0.16-309.85c0-3.94-1.72-8.96,0.78-11.53
			c2.29-2.35,7.27-0.62,11.05-0.72c11.37-0.3,19.97-8.64,20.07-19.95c0.14-15.99,0.13-31.98,0-47.98
			c-0.09-11.36-8.63-19.95-19.93-20.03c-16.16-0.12-32.32-0.15-48.47,0.02c-10.76,0.11-19.17,8.68-19.51,19.44
			c-0.07,2.33-0.31,4.71,0.04,6.99c0.72,4.74-1.32,5.61-5.71,5.6c-103.44-0.12-206.88-0.09-310.32-0.12c-3.79,0-8.66,1.6-11.08-0.7
			c-2.44-2.33-0.69-7.24-0.79-11.02C91.8,12.69,83.42,4.23,71.78,4.1C63.96,4.02,56.13,4.09,48.3,4.09z"/>
		<path class="st1" d="M48.3,4.09c7.83,0,15.66-0.07,23.49,0.02C83.42,4.23,91.8,12.69,92.1,24.32c0.1,3.78-1.65,8.69,0.79,11.02
			c2.41,2.3,7.29,0.7,11.08,0.7c103.44,0.03,206.88,0,310.32,0.12c4.39,0.01,6.42-0.86,5.71-5.6c-0.35-2.28-0.11-4.66-0.04-6.99
			c0.34-10.77,8.74-19.33,19.51-19.44c16.16-0.17,32.31-0.14,48.47-0.02c11.3,0.09,19.84,8.67,19.93,20.03
			c0.13,15.99,0.14,31.99,0,47.98c-0.1,11.31-8.71,19.65-20.07,19.95c-3.79,0.1-8.77-1.63-11.05,0.72
			c-2.5,2.57-0.78,7.59-0.78,11.53c-0.05,103.28,0,206.57-0.16,309.85c-0.01,4.91,1.25,6.57,6,5.83c1.95-0.3,3.99-0.08,5.99-0.04
			c11.36,0.21,19.98,8.59,20.08,19.9c0.14,15.99,0.13,31.98,0.01,47.98c-0.09,11.37-8.61,19.95-19.92,20.05
			c-15.99,0.14-31.98,0.13-47.97,0c-11.33-0.09-19.77-8.66-20.04-19.96c-0.09-3.8,1.21-8.84-0.72-11.08
			c-2.3-2.68-7.5-0.86-11.43-0.86c-103.27-0.06-206.55-0.01-309.82-0.16c-4.7-0.01-6.76,0.91-5.95,5.88
			c0.34,2.11,0.1,4.32,0.04,6.49c-0.31,11.05-8.73,19.59-19.79,19.69c-16.16,0.15-32.32,0.16-48.47-0.01
			c-11.03-0.11-19.55-8.73-19.65-19.8C4.01,471.91,4,455.75,4.16,439.59c0.11-11.01,8.76-19.38,19.83-19.64c0.17,0,0.33,0.01,0.5,0
			c3.76-0.33,8.88,1.71,10.91-0.91c1.88-2.43,0.69-7.31,0.69-11.12c0.02-103.45-0.02-206.9,0.13-310.35
			c0.01-4.68-1.31-6.16-5.75-5.56c-2.13,0.29-4.33,0.09-6.49,0.04c-11.08-0.27-19.7-8.66-19.81-19.66C4,56.22,4.01,40.06,4.15,23.9
			c0.1-11.27,8.77-19.67,20.16-19.8C32.31,4.01,40.3,4.09,48.3,4.09z M255.98,451.93c50.8,0,101.59,0,152.39,0
			c11.38,0,11.38,0,11.56-11.57c0.01-0.33,0-0.67,0.01-1c0.34-8.95,6.09-16.14,14.68-18.67c3.79-1.12,7.64-0.99,11.4-0.64
			c4.74,0.44,6.03-0.94,6.02-5.87c-0.17-103.1-0.12-206.2-0.16-309.31c0-4.11,1.77-9.34-0.76-12.04c-2.35-2.51-7.56-0.62-11.51-0.77
			c-11.04-0.42-19.39-8.8-19.66-19.88c-0.05-2.16-0.25-4.36,0.04-6.49c0.6-4.44-0.88-5.76-5.56-5.75
			c-103.59,0.15-207.18,0.11-310.78,0.13c-3.64,0-8.42-1.19-10.63,0.63c-2.64,2.18-0.6,7.17-0.94,10.92c-0.03,0.33,0,0.67-0.02,1
			c-0.36,8.99-6.07,16.11-14.69,18.66c-3.79,1.12-7.64,1.01-11.4,0.65c-4.77-0.45-6.01,0.97-6.01,5.88
			c0.16,103.1,0.11,206.2,0.16,309.31c0,4.11-1.77,9.34,0.77,12.03c2.36,2.5,7.57,0.62,11.52,0.76c10.83,0.4,19.21,8.6,19.64,19.39
			c0.1,2.49,0.29,5.03-0.03,7.49c-0.53,4.11,0.84,5.25,5.08,5.24C150.05,451.88,203.02,451.93,255.98,451.93z M28.1,47.82
			c0,5.49,0.11,10.99-0.05,16.48c-0.07,2.59,0.34,3.88,3.43,3.83c11.15-0.18,22.31-0.12,33.46-0.03c2.31,0.02,3.21-0.58,3.18-3.05
			c-0.11-11.32-0.11-22.64,0-33.96c0.02-2.47-0.87-3.07-3.18-3.05c-11.15,0.09-22.31,0.15-33.46-0.03c-3.1-0.05-3.51,1.24-3.43,3.83
			C28.21,37.16,28.1,42.49,28.1,47.82z M464.15,28.08c-5.49,0-11,0.2-16.48-0.08c-3.23-0.16-3.86,1.02-3.81,3.97
			c0.16,10.82,0.15,21.64,0.01,32.47c-0.04,2.77,0.67,3.73,3.58,3.69c10.99-0.16,21.98-0.17,32.96,0c2.95,0.05,3.59-0.98,3.55-3.71
			c-0.14-10.99-0.13-21.98-0.01-32.97c0.03-2.55-0.62-3.53-3.32-3.43C475.14,28.22,469.64,28.08,464.15,28.08z M68.08,463.81
			c0-5.49-0.11-10.99,0.05-16.48c0.07-2.53-0.58-3.48-3.3-3.45c-11.15,0.14-22.31,0.14-33.46,0c-2.71-0.03-3.34,0.9-3.31,3.44
			c0.12,11.15,0.1,22.31,0.01,33.47c-0.02,2.3,0.57,3.21,3.05,3.19c11.32-0.11,22.64-0.11,33.96,0c2.46,0.02,3.11-0.86,3.06-3.18
			C67.99,475.13,68.08,469.47,68.08,463.81z M464.33,443.94c-5.83,0-11.65,0.06-17.48-0.03c-2.03-0.03-2.99,0.45-2.97,2.75
			c0.09,11.49,0.09,22.98,0,34.46c-0.02,2.2,0.73,2.86,2.88,2.84c11.49-0.08,22.97-0.09,34.46,0c2.33,0.02,2.72-1.01,2.71-3
			c-0.06-11.32-0.09-22.64,0.02-33.96c0.02-2.41-0.77-3.16-3.14-3.1C475.32,444.03,469.83,443.94,464.33,443.94z"/>
		<path class="st0" d="M255.98,451.93c-52.96,0-105.92-0.06-158.89,0.1c-4.24,0.01-5.61-1.13-5.08-5.24
			c0.32-2.46,0.13-4.99,0.03-7.49c-0.42-10.79-8.81-18.99-19.64-19.39c-3.95-0.15-9.16,1.74-11.52-0.76
			c-2.54-2.7-0.77-7.92-0.77-12.03c-0.05-103.1,0-206.2-0.16-309.31c-0.01-4.91,1.24-6.33,6.01-5.88c3.75,0.35,7.61,0.47,11.4-0.65
			c8.62-2.55,14.33-9.68,14.69-18.66c0.01-0.33-0.01-0.67,0.02-1c0.34-3.75-1.7-8.73,0.94-10.92c2.21-1.83,6.99-0.63,10.63-0.63
			c103.59-0.02,207.19,0.02,310.78-0.13c4.68-0.01,6.16,1.31,5.56,5.75c-0.29,2.13-0.09,4.33-0.04,6.49
			c0.28,11.08,8.63,19.45,19.66,19.88c3.95,0.15,9.16-1.74,11.51,0.77c2.53,2.7,0.76,7.93,0.76,12.04
			c0.05,103.1,0,206.2,0.16,309.31c0.01,4.93-1.27,6.3-6.02,5.87c-3.76-0.34-7.61-0.48-11.4,0.64c-8.59,2.53-14.34,9.72-14.68,18.67
			c-0.01,0.33-0.01,0.67-0.01,1c-0.18,11.57-0.18,11.57-11.56,11.57C357.57,451.93,306.78,451.93,255.98,451.93z M259.97,155.99
			c-23.33,0.01-42.01,4.29-59.79,12.41c-38.53,17.59-66.6,46.87-90.15,81.13c-3.06,4.45-2.66,9.18,0.36,13.57
			c17.33,25.14,37.29,47.84,62.71,65.11c49.17,33.39,100.19,37.74,152.7,8.24c31.76-17.84,55.67-44.07,76.04-73.78
			c3.3-4.81,2.62-9.68-0.67-14.42c-14.01-20.22-29.85-38.8-48.92-54.44C324.33,170.9,293.04,156.46,259.97,155.99z M352.1,171.94
			c2.59-0.17,4.99-0.65,6.73-2.23c9.02-8.15,17.78-16.61,25.72-25.8c3.8-4.4,2.79-10.92-1.24-15.04c-4.21-4.3-10.84-5.28-15.42-1.28
			c-9.03,7.88-17.47,16.43-25.41,25.4c-3.24,3.66-3.23,8.27-0.81,12.63C343.97,169.76,347.66,171.67,352.1,171.94z M171.95,351.83
			c-0.4-4.65-2.56-8.45-7-10.54c-5.1-2.4-9.83-1.26-13.76,2.58c-7.39,7.21-14.72,14.49-21.91,21.9c-5.34,5.5-5.42,12.44-0.55,17.39
			c4.88,4.95,11.88,4.98,17.38-0.32c7.44-7.16,14.65-14.55,21.93-21.87C170.48,358.51,171.82,355.53,171.95,351.83z M351.6,340.07
			c-4.74,0.47-8.53,2.8-10.54,7.53c-2.13,5.02-0.83,9.51,2.83,13.25c7.19,7.36,14.43,14.69,21.83,21.84
			c5.44,5.25,12.5,5.24,17.35,0.37c4.86-4.87,4.84-11.9-0.42-17.36c-7.03-7.29-14.28-14.36-21.46-21.51
			C358.64,341.63,355.58,340.13,351.6,340.07z M137.32,125.3c-4.79,0.42-8.75,2.5-10.85,7.24c-2.28,5.16-1.04,9.79,2.78,13.69
			c7.09,7.23,14.22,14.42,21.48,21.48c5.67,5.51,12.72,5.6,17.7,0.5c4.82-4.94,4.72-11.83-0.61-17.35
			c-7.03-7.28-14.29-14.35-21.46-21.5C143.93,126.9,140.98,125.56,137.32,125.3z M268,104.12c0-4.99,0-9.98,0-14.97
			c0-0.33,0.01-0.67-0.01-1c-0.33-6.97-5.45-12.11-12.03-12.08c-6.58,0.02-11.81,5.19-11.91,12.18
			c-0.15,10.48-0.14,20.96-0.01,31.43c0.09,7.05,5.18,12.22,11.75,12.33c6.78,0.12,12.01-5.14,12.18-12.43
			C268.09,114.44,267.99,109.28,268,104.12z M268,408.12c0-5.16,0.08-10.31-0.02-15.47c-0.13-7.37-5.17-12.65-11.93-12.68
			c-6.76-0.03-11.94,5.27-12.01,12.58c-0.11,10.31-0.12,20.62,0.01,30.93c0.09,7.27,5.4,12.55,12.16,12.43
			c6.58-0.12,11.59-5.27,11.76-12.33C268.1,418.43,267.99,413.27,268,408.12z"/>
		<path class="st0" d="M28.1,47.82c0-5.33,0.11-10.66-0.05-15.98c-0.08-2.59,0.33-3.88,3.43-3.83c11.15,0.18,22.31,0.12,33.46,0.03
			c2.31-0.02,3.21,0.58,3.18,3.05c-0.11,11.32-0.11,22.64,0,33.96c0.02,2.47-0.87,3.07-3.18,3.05c-11.15-0.09-22.31-0.15-33.46,0.03
			c-3.1,0.05-3.51-1.24-3.43-3.83C28.21,58.81,28.1,53.31,28.1,47.82z"/>
		<path class="st0" d="M464.15,28.08c5.49,0,10.99,0.14,16.48-0.06c2.71-0.1,3.35,0.88,3.32,3.43c-0.12,10.99-0.13,21.98,0.01,32.97
			c0.03,2.73-0.6,3.76-3.55,3.71c-10.99-0.17-21.98-0.17-32.96,0c-2.91,0.04-3.62-0.92-3.58-3.69c0.14-10.82,0.16-21.65-0.01-32.47
			c-0.04-2.95,0.59-4.14,3.81-3.97C453.15,28.28,458.66,28.08,464.15,28.08z"/>
		<path class="st0" d="M68.08,463.81c0,5.66-0.09,11.32,0.04,16.98c0.05,2.32-0.59,3.2-3.06,3.18c-11.32-0.11-22.64-0.11-33.96,0
			c-2.48,0.02-3.06-0.89-3.05-3.19c0.09-11.15,0.11-22.31-0.01-33.47c-0.03-2.54,0.61-3.47,3.31-3.44c11.15,0.14,22.31,0.14,33.46,0
			c2.72-0.04,3.38,0.92,3.3,3.45C67.97,452.82,68.08,458.31,68.08,463.81z"/>
		<path class="st0" d="M464.33,443.94c5.49,0,10.99,0.1,16.48-0.05c2.37-0.06,3.16,0.69,3.14,3.1c-0.11,11.32-0.08,22.64-0.02,33.96
			c0.01,1.99-0.37,3.02-2.71,3c-11.49-0.09-22.97-0.08-34.46,0c-2.15,0.02-2.89-0.65-2.88-2.84c0.09-11.49,0.09-22.98,0-34.46
			c-0.02-2.3,0.94-2.78,2.97-2.75C452.68,444,458.51,443.94,464.33,443.94z"/>
		<path class="st2" d="M259.97,155.99c33.07,0.47,64.37,14.91,92.29,37.82c19.07,15.65,34.92,34.22,48.92,54.44
			c3.28,4.74,3.96,9.61,0.67,14.42c-20.37,29.71-44.28,55.94-76.04,73.78c-52.52,29.5-103.53,25.15-152.7-8.24
			c-25.42-17.27-45.39-39.96-62.71-65.11c-3.02-4.39-3.42-9.12-0.36-13.57c23.54-34.26,51.62-63.55,90.15-81.13
			C217.96,160.29,236.64,156,259.97,155.99z M256.29,196.02c-33.07-0.1-60.2,26.83-60.26,59.81c-0.06,32.83,26.75,59.97,59.42,60.15
			c33.11,0.18,60.37-26.65,60.52-59.58C316.13,223.31,289.26,196.12,256.29,196.02z"/>
		<path class="st3" d="M352.1,171.94c-4.44-0.27-8.13-2.18-10.43-6.32c-2.42-4.36-2.43-8.97,0.81-12.63
			c7.94-8.98,16.39-17.52,25.41-25.4c4.58-4,11.21-3.02,15.42,1.28c4.03,4.12,5.04,10.65,1.24,15.04
			c-7.94,9.19-16.7,17.65-25.72,25.8C357.09,171.28,354.69,171.77,352.1,171.94z"/>
		<path class="st4" d="M171.95,351.83c-0.13,3.7-1.47,6.68-3.9,9.13c-7.28,7.32-14.49,14.72-21.93,21.87
			c-5.51,5.3-12.51,5.26-17.38,0.32c-4.88-4.94-4.79-11.89,0.55-17.39c7.19-7.41,14.52-14.68,21.91-21.9
			c3.93-3.84,8.66-4.99,13.76-2.58C169.39,343.38,171.55,347.18,171.95,351.83z"/>
		<path class="st3" d="M351.6,340.07c3.98,0.06,7.04,1.56,9.6,4.12c7.18,7.14,14.43,14.22,21.46,21.51
			c5.26,5.46,5.27,12.49,0.42,17.36c-4.86,4.87-11.91,4.88-17.35-0.37c-7.41-7.14-14.64-14.47-21.83-21.84
			c-3.65-3.74-4.96-8.23-2.83-13.25C343.07,342.87,346.86,340.54,351.6,340.07z"/>
		<path class="st5" d="M137.32,125.3c3.65,0.26,6.6,1.61,9.05,4.05c7.17,7.15,14.43,14.22,21.46,21.5
			c5.33,5.52,5.43,12.41,0.61,17.35c-4.97,5.1-12.03,5.01-17.7-0.5c-7.26-7.06-14.39-14.25-21.48-21.48
			c-3.83-3.9-5.06-8.53-2.78-13.69C128.57,127.8,132.53,125.71,137.32,125.3z"/>
		<path class="st2" d="M268,104.12c0,5.16,0.1,10.31-0.03,15.47c-0.17,7.29-5.4,12.54-12.18,12.43
			c-6.57-0.11-11.66-5.29-11.75-12.33c-0.13-10.48-0.14-20.96,0.01-31.43c0.1-6.99,5.33-12.15,11.91-12.18
			c6.58-0.02,11.7,5.11,12.03,12.08c0.02,0.33,0.01,0.67,0.01,1C268,94.14,268,99.13,268,104.12z"/>
		<path class="st2" d="M267.99,408.12c0,5.16,0.1,10.31-0.03,15.47c-0.18,7.06-5.18,12.21-11.76,12.33
			c-6.76,0.12-12.07-5.16-12.16-12.43c-0.12-10.31-0.11-20.62-0.01-30.93c0.08-7.32,5.25-12.61,12.01-12.58
			c6.76,0.03,11.8,5.32,11.93,12.68C268.07,397.8,268,402.96,267.99,408.12z"/>
		<path class="st6" d="M256.29,196.02c32.97,0.1,59.85,27.29,59.69,60.38c-0.16,32.93-27.42,59.76-60.52,59.58
			c-32.67-0.18-59.48-27.31-59.42-60.15C196.09,222.85,223.22,195.92,256.29,196.02z M291.98,255.76
			c-0.09-19.74-16.29-35.78-36.08-35.75c-19.74,0.04-35.86,16.19-35.87,35.95c-0.01,19.96,16.32,36.14,36.33,36.01
			C276.05,291.84,292.07,275.56,291.98,255.76z"/>
		<path class="st2" d="M291.98,255.76c0.09,19.8-15.92,36.08-35.62,36.21c-20.01,0.14-36.34-16.04-36.33-36.01
			c0.01-19.76,16.12-35.91,35.87-35.95C275.69,219.98,291.89,236.03,291.98,255.76z"/>
	</g>
</g>
<g class="st7">
	<g class="st8">
		<path class="st9" d="M157.04,511.9c-50.98,0-101.96-0.04-152.94,0.1c-3.42,0.01-4.1-0.67-4.09-4.1C0.11,339.97,0.11,172.03,0,4.1
			C0,0.67,0.67-0.01,4.09,0c50.98,0.14,101.96,0.1,152.94,0.1c-0.58,0.28-1.14,0.68-1.75,0.81c-19.98,4.38-33.64,19.1-34.32,39.28
			c-0.84,24.96-0.45,49.96-0.4,74.94c0.01,3.34-1.1,4.88-4.08,6.34c-33.66,16.37-54.18,43.07-62.12,79.58
			c-0.86,3.97,0.53,9.58-2.64,11.56c-3.03,1.88-8.07,0.59-12.23,0.6c-13.03,0.03-12.94,0.01-12.72,13.18
			c0.05,2.98,0.76,4.14,3.92,4.02c5.99-0.23,11.99,0.05,17.99-0.11c3.05-0.09,4.21,0.7,4.56,4.09
			c4.82,47.77,41.95,87.78,89.19,96.51c4.02,0.74,9.63-0.63,11.67,2.52c1.92,2.97,0.68,8.05,0.69,12.19
			c0.04,13.09,0.01,12.95,13.11,12.79c3.52-0.04,4.14-1.38,4.05-4.42c-0.18-5.82,0.1-11.66-0.11-17.49
			c-0.11-3.09,0.7-4.27,4.04-4.59c47.18-4.5,87.87-42.24,96.21-88.85c0.73-4.06-0.53-9.48,2.44-11.88c3.11-2.5,8.33-0.75,12.62-0.79
			c13.06-0.1,12.92-0.03,12.8-13.15c-0.03-3.48-1.29-4.18-4.39-4.06c-5.49,0.21-11.02-0.28-16.48,0.16
			c-4.39,0.35-5.63-1.26-6.07-5.41c-4.8-46.12-42.99-86.82-88.63-94.87c-4.04-0.71-9.66,0.54-11.73-2.54
			c-1.95-2.92-0.72-8.03-0.74-12.17c-0.04-13.89-0.01-13.81-13.75-13.13c-2.64,0.13-3.47,0.99-3.4,3.53
			c0.14,4.66,0.04,9.33,0.04,13.99c0,8.31,0,8.3-8,9.52c-1.64,0.25-3.35,0.37-4.89,0.94c-3.39,1.24-4.22,0.07-4.18-3.32
			c0.16-12.16,0.24-24.32-0.03-36.48c-0.09-4.2,1.2-5.22,5.31-5.21c39.64,0.15,79.29,0.09,118.93,0.09c12.22,0,12.02,0,12.27-12.05
			c0.09-4.25-1.24-5.15-5.3-5.13c-41.64,0.15-83.29,0.09-124.93,0.09c-1.17,0-2.34-0.06-3.5,0c-1.86,0.11-2.49-0.64-2.73-2.56
			c-2.21-18.12,9.31-31.47,27.44-31.48c61.3-0.03,122.6,0,183.9-0.03c3.88,0,7.55,0.79,11.26,1.82c3,0.83,5.15,5,8.15,3.47
			c2.76-1.41,4.55-4.74,6.77-7.22c0.55-0.62,1.05-1.31,1.68-1.85c2.33-2,1.52-3.28-0.62-4.94c-5.49-4.23-12.08-5.88-18.35-8.3
			c50.15,0,100.3,0.03,150.44-0.08c2.98-0.01,3.59,0.6,3.58,3.58c-0.11,61.81-0.08,123.62-0.08,185.43
			c-0.23-0.23-0.54-0.42-0.67-0.7c-9.04-19.19-28.95-23.42-44.75-9.49c-19.86,17.51-39.72,35.03-59.59,52.53
			c-4.07,3.58-8.18,7.12-12.38,10.78c-1.31-1.95-0.8-3.63-0.8-5.2c-0.04-17.82-0.03-35.64-0.03-53.46c0-12.83,0-12.68-12.63-12.78
			c-3.75-0.03-4.78,1.01-4.75,4.75c0.16,25.48,0.08,50.97,0.08,76.45c0,0.83-0.33,1.95,0.08,2.45c1.95,2.38,0.38,3.54-1.28,4.99
			c-14.27,12.52-28.52,25.07-42.69,37.7c-1.63,1.45-3.36,1.79-5.38,2.09c-23.72,3.5-40.23,16.26-49.24,38.58
			c-4.57,11.31-3.82,23.19-3.82,34.98c0,8.49-3.39,15.2-10.68,19.64c-4.16,2.53-7.31,5.42-6.04,10.78c1.07,4.5,4.61,6.56,10.98,6.57
			c18.32,0.02,36.64,0.08,54.96-0.01c32.2-0.16,56.15-20.7,61.14-52.47c0.46-2.96,1.55-5.25,3.49-7.44
			c28.8-32.55,57.72-65,86.25-97.8c12.83-14.75,27.21-28.24,37.75-44.93c0,100.3-0.02,200.59,0.1,300.89c0,3.42-0.67,4.11-4.09,4.1
			c-49.98-0.14-99.96-0.1-149.94-0.1c0.2-0.25,0.35-0.64,0.6-0.71c24.22-6.91,35.11-21.33,35.12-46.55c0-19.82,0-39.63,0-59.45
			c0-13.13,0-13.02-13.06-12.89c-3.21,0.03-4.39,0.87-4.31,4.22c0.21,8.15-0.2,16.33,0.17,24.47c0.21,4.61-1.19,5.82-5.8,5.8
			c-44.96-0.18-89.92-0.11-134.88-0.11c-13.05,0-12.89,0-12.93,12.87c-0.01,3.71,1.3,4.35,4.61,4.29
			c11.65-0.18,23.31-0.07,34.97-0.07c36.3,0,72.6,0.05,108.91-0.07c3.71-0.01,5.35,0.65,5.13,4.84c-0.38,7.14,0.09,14.32-0.2,21.47
			c-0.58,14.25-11.2,24.77-25.47,24.79c-62.45,0.12-124.89,0.07-187.34,0.02c-7.31-0.01-14.15-2.34-18.59-8.14
			c-3.5-4.57-6.27-4.05-9.98-1.13c-0.52,0.41-1.13,0.7-1.71,1.03c-7.85,4.56-7.77,4.49-1.5,11.41
			C138.57,505.59,147.42,509.4,157.04,511.9z M393.42,153.77c29.98,0,59.96,0,89.94,0c10.01,0,12.55-2.49,12.55-12.26
			c0-31.98,0.01-63.95,0-95.93c0-8.57-2.82-11.42-11.32-11.43c-60.62-0.01-121.25-0.01-181.87,0c-8.79,0-11.62,2.85-11.63,11.69
			c-0.01,31.81-0.01,63.62,0,95.43c0,9.87,2.6,12.49,12.4,12.49C333.47,153.78,363.45,153.77,393.42,153.77z M103.58,469.16
			c30.65,0,61.29,0.02,91.94-0.02c7.33-0.01,10.4-3.03,10.42-10.24c0.05-21.48,0.04-42.97,0-64.45c-0.01-7.48-3.12-10.49-10.74-10.5
			c-17.32-0.02-34.64-0.14-51.96,0.09c-4.19,0.06-5.84-0.68-5.59-5.35c0.44-8.3,0.12-16.65,0.12-24.98c0-12.82,0-12.68-12.82-12.65
			c-3.67,0.01-4.43,1.33-4.37,4.65c0.17,10.32,0.06,20.65,0.06,30.98c0,7.24,0,7.24-6.99,7.24c-33.81,0-67.62-0.01-101.43,0.01
			c-8.2,0-11.09,2.89-11.1,11.13c-0.02,20.82-0.01,41.64,0,62.46c0,9.03,2.56,11.62,11.52,11.62
			C42.96,469.17,73.27,469.17,103.58,469.16z M52.38,34.15c-13.48,0-26.96-0.02-40.45,0.01C4.11,34.18,1.14,37.2,1.13,45.1
			c-0.02,21.14-0.02,42.28,0,63.42c0.01,7.97,2.85,11.05,10.71,11.07c26.96,0.08,53.93,0.08,80.89,0c7.91-0.02,10.83-3,10.87-10.99
			c0.09-21.3,0.09-42.61-0.01-63.91c-0.03-7.54-3.21-10.51-10.76-10.53C79.34,34.12,65.86,34.15,52.38,34.15z M256.92,477.86
			c8.82,0,8.82,0,8.82-7.88c0-9.2,0-9.2-9-9.2c-8.32,0-8.32,0-8.32,8.39C248.41,477.86,248.41,477.86,256.92,477.86z"/>
		<path class="st10" d="M357.96,0.1c6.27,2.42,12.86,4.07,18.35,8.3c2.14,1.65,2.95,2.94,0.62,4.94c-0.63,0.54-1.12,1.23-1.68,1.85
			c-2.22,2.48-4,5.81-6.77,7.22c-3,1.53-5.16-2.64-8.15-3.47c-3.72-1.03-7.39-1.82-11.26-1.82c-61.3,0.03-122.6,0-183.9,0.03
			c-18.13,0.01-29.64,13.37-27.44,31.48c0.23,1.91,0.87,2.67,2.73,2.56c1.16-0.07,2.33,0,3.5,0c41.64,0,83.29,0.06,124.93-0.09
			c4.06-0.01,5.38,0.89,5.3,5.13c-0.24,12.04-0.05,12.05-12.27,12.05c-39.64,0-79.29,0.06-118.93-0.09c-4.1-0.02-5.4,1-5.31,5.21
			c0.27,12.15,0.2,24.32,0.03,36.48c-0.05,3.39,0.79,4.55,4.18,3.32c1.54-0.56,3.25-0.69,4.89-0.94c8-1.21,8-1.21,8-9.52
			c0-4.66,0.1-9.33-0.04-13.99c-0.07-2.54,0.76-3.4,3.4-3.53c13.74-0.68,13.71-0.76,13.75,13.13c0.01,4.15-1.21,9.25,0.74,12.17
			c2.06,3.09,7.68,1.83,11.73,2.54c45.64,8.05,83.83,48.75,88.63,94.87c0.43,4.15,1.68,5.77,6.07,5.41
			c5.46-0.44,10.99,0.04,16.48-0.16c3.1-0.12,4.36,0.58,4.39,4.06c0.12,13.11,0.26,13.05-12.8,13.15
			c-4.29,0.03-9.51-1.71-12.62,0.79c-2.97,2.4-1.72,7.82-2.44,11.88c-8.33,46.61-49.03,84.35-96.21,88.85
			c-3.34,0.32-4.15,1.49-4.04,4.59c0.21,5.82-0.06,11.66,0.11,17.49c0.09,3.04-0.53,4.38-4.05,4.42
			c-13.09,0.16-13.07,0.3-13.11-12.79c-0.01-4.15,1.23-9.22-0.69-12.19c-2.04-3.15-7.65-1.77-11.67-2.52
			c-47.24-8.73-84.37-48.73-89.19-96.51c-0.34-3.39-1.5-4.17-4.56-4.09c-5.99,0.17-12-0.11-17.99,0.11
			c-3.16,0.12-3.87-1.04-3.92-4.02c-0.22-13.17-0.32-13.15,12.72-13.18c4.16-0.01,9.2,1.28,12.23-0.6
			c3.17-1.97,1.78-7.58,2.64-11.56c7.94-36.51,28.46-63.21,62.12-79.58c2.99-1.45,4.09-2.99,4.08-6.34
			c-0.05-24.98-0.44-49.98,0.4-74.94c0.68-20.18,14.34-34.91,34.32-39.28c0.61-0.13,1.17-0.54,1.75-0.81
			C224.01,0.1,290.99,0.1,357.96,0.1z M223.05,294.16c17.06-14.66,27.36-32.04,31.87-52.85c2.37-10.94,2.21-11.27-8.82-10.85
			c-5.09,0.19-6.42-1.22-6.23-6.26c0.42-10.95,0.12-10.96,10.87-10.98c6.04-0.01,6.04-0.01,5.12-6.14
			c-5.65-37.71-36.41-69.87-73.66-77.01c-10.32-1.98-10.32-1.98-10.32,8.49c0,6.52,0,6.52-6.71,6.52c-10.37,0-10.37,0-10.38-10.33
			c-0.01-6.5-0.05-6.59-6.31-5.51c-21.56,3.72-39.9,13.49-54.66,29.68c-13.03,14.3-20.65,31.22-23.6,50.31
			c-0.46,2.99,0.19,4.34,3.5,4.04c2.81-0.25,5.67,0.13,8.49-0.1c3.28-0.27,4.23,0.91,4.26,4.22c0.11,12.65,0.23,12.78-12.45,12.86
			c-3.45,0.02-4.29,1.06-3.78,4.32c3.42,21.97,12.93,40.74,29.13,56.04c1,0.95,1.82,2.45,3.61,2.08c0.09-0.2,0.21-0.35,0.23-0.51
			c0.23-2.48,0.41-4.97,0.66-7.45c1.87-19.12,10.94-34,26.89-44.51c3.77-2.49,4.48-3.53,1.02-7.13
			c-12.54-13.07-14.67-33.72-5.65-49.57c9.13-16.05,27.68-24.54,45.45-20.72c16.19,3.48,27.15,13.21,32.21,28.82
			c5.09,15.7,1.54,30.03-9.64,42.09c-3.06,3.3-2.24,4.33,1,6.1c3.65,2,6.84,4.72,9.81,7.67
			C217.57,260.02,223.25,275.34,223.05,294.16z M205.89,295.39c0-2.16,0.07-4.33-0.01-6.49c-0.85-21.21-17.2-39.14-37.33-40.97
			c-23.01-2.09-42.21,11.47-46.98,33.4c-1.6,7.38-0.69,14.93-0.85,22.41c-0.04,1.66,1.05,2.29,2.29,2.88
			c9.08,4.31,18.63,7.02,28.59,8.37c2.37,0.32,3.33-0.51,3.22-2.97c-0.15-3.49-0.03-6.99-0.03-10.49c0-1.39,0.06-2.79,1.98-2.75
			c4.81,0.11,10.34-1.64,14.18,0.73c2.71,1.67,0.56,7.15,0.92,10.91c0.03,0.33,0.05,0.67,0,1c-0.55,3.34,1.11,4,4.01,3.5
			c6.72-1.17,13.36-2.63,19.78-5C205.93,306.12,205.94,306.15,205.89,295.39z M163.04,230.24c14.33,0.06,25.84-11.3,25.83-25.48
			c-0.01-13.81-11.55-25.42-25.42-25.57c-14.15-0.15-25.63,11.34-25.64,25.66C137.81,219.03,148.89,230.19,163.04,230.24z"/>
		<path class="st5" d="M511.9,207.02c-10.54,16.68-24.92,30.17-37.75,44.93c-28.52,32.8-57.44,65.25-86.25,97.8
			c-1.94,2.19-3.02,4.48-3.49,7.44c-4.98,31.78-28.94,52.31-61.14,52.47c-18.32,0.09-36.64,0.03-54.96,0.01
			c-6.36-0.01-9.91-2.07-10.98-6.57c-1.27-5.35,1.88-8.24,6.04-10.78c7.28-4.43,10.68-11.14,10.68-19.64
			c0-11.8-0.75-23.67,3.82-34.98c9.01-22.32,25.52-35.08,49.24-38.58c2.02-0.3,3.75-0.64,5.38-2.09
			c14.18-12.63,28.42-25.18,42.69-37.7c1.66-1.46,3.23-2.62,1.28-4.99c-0.41-0.5-0.08-1.62-0.08-2.45c0-25.48,0.07-50.97-0.08-76.45
			c-0.02-3.74,1-4.79,4.75-4.75c12.63,0.11,12.63-0.05,12.63,12.78c0,17.82-0.02,35.64,0.03,53.46c0,1.57-0.51,3.26,0.8,5.2
			c4.21-3.66,8.31-7.19,12.38-10.78c19.87-17.5,39.73-35.02,59.59-52.53c15.8-13.93,35.71-9.7,44.75,9.49
			c0.13,0.28,0.44,0.47,0.67,0.7C511.9,195.02,511.9,201.02,511.9,207.02z M495.85,196.97c-0.28-3.33-2.08-6.55-5.97-8.23
			c-4.06-1.75-7.8-0.94-11.1,1.97c-7.24,6.38-14.47,12.78-21.71,19.16c-35.69,31.49-71.35,63-107.11,94.4
			c-2.84,2.5-3.34,3.94-0.31,6.79c7.87,7.41,15.5,15.1,22.96,22.93c2.69,2.82,4.09,2.92,6.75-0.15
			c16.47-18.98,33.17-37.76,49.79-56.6c20.81-23.58,41.62-47.16,62.43-70.74C493.8,203.99,495.93,201.42,495.85,196.97z
			 M310.04,392.38c0-0.05,0-0.11,0-0.16c6,0,12.01,0.28,17.98-0.05c19.97-1.1,36.05-15.86,39.36-35.6c0.42-2.5-0.21-4.01-1.89-5.67
			c-11.01-10.9-21.98-21.84-32.86-32.87c-1.75-1.77-3.46-2.18-5.78-1.78c-18.12,3.14-32.26,17.59-35.07,35.66
			c-1.01,6.48-0.63,12.96-0.62,19.44c0.01,6.07-0.56,12.01-3.19,17.52c-1.53,3.2-0.23,3.59,2.57,3.55
			C297.04,392.3,303.54,392.38,310.04,392.38z"/>
		<path class="st11" d="M157.04,511.9c-9.61-2.5-18.47-6.32-25.34-13.9c-6.27-6.91-6.35-6.84,1.5-11.41
			c0.57-0.33,1.19-0.62,1.71-1.03c3.71-2.92,6.47-3.44,9.98,1.13c4.44,5.79,11.28,8.13,18.59,8.14
			c62.45,0.05,124.89,0.1,187.34-0.02c14.27-0.03,24.89-10.54,25.47-24.79c0.29-7.15-0.18-14.33,0.2-21.47
			c0.22-4.19-1.41-4.86-5.13-4.84c-36.3,0.12-72.6,0.07-108.91,0.07c-11.66,0-23.31-0.11-34.97,0.07c-3.31,0.05-4.62-0.59-4.61-4.29
			c0.04-12.87-0.12-12.87,12.93-12.87c44.96,0,89.92-0.07,134.88,0.11c4.61,0.02,6.01-1.19,5.8-5.8
			c-0.37-8.14,0.04-16.32-0.17-24.47c-0.09-3.35,1.1-4.18,4.31-4.22c13.06-0.13,13.06-0.24,13.06,12.89c0,19.82,0,39.63,0,59.45
			c-0.01,25.22-10.9,39.64-35.12,46.55c-0.25,0.07-0.4,0.47-0.6,0.71C290.99,511.9,224.01,511.9,157.04,511.9z"/>
		<path class="st5" d="M393.42,153.77c-29.98,0-59.96,0.01-89.94,0c-9.8,0-12.4-2.63-12.4-12.49c0-31.81-0.01-63.62,0-95.43
			c0-8.84,2.83-11.69,11.63-11.69c60.62-0.01,121.25-0.01,181.87,0c8.5,0,11.32,2.85,11.32,11.43c0.01,31.98,0.01,63.95,0,95.93
			c0,9.77-2.54,12.26-12.55,12.26C453.38,153.77,423.4,153.77,393.42,153.77z M393.3,136.66c26.98,0,53.97-0.07,80.95,0.08
			c3.7,0.02,4.76-0.91,4.73-4.71c-0.18-25.32-0.18-50.64,0-75.95c0.03-3.91-0.98-4.99-4.95-4.98c-53.63,0.14-107.27,0.13-160.9,0.01
			c-3.8-0.01-5.1,0.8-5.07,4.9c0.2,25.15,0.2,50.3,0.01,75.45c-0.03,4.18,1.14,5.31,5.29,5.28
			C340,136.57,366.65,136.66,393.3,136.66z"/>
		<path class="st11" d="M103.58,469.16c-30.31,0-60.62,0.01-90.94,0c-8.97,0-11.52-2.59-11.52-11.62c-0.01-20.82-0.01-41.64,0-62.46
			c0.01-8.23,2.89-11.12,11.1-11.13c33.81-0.01,67.62,0,101.43-0.01c6.99,0,6.99,0,6.99-7.24c0-10.33,0.11-20.65-0.06-30.98
			c-0.06-3.32,0.71-4.64,4.37-4.65c12.82-0.03,12.82-0.18,12.82,12.65c0,8.33,0.32,16.67-0.12,24.98c-0.25,4.66,1.4,5.4,5.59,5.35
			c17.32-0.23,34.64-0.11,51.96-0.09c7.61,0.01,10.72,3.01,10.74,10.5c0.04,21.48,0.04,42.97,0,64.45
			c-0.02,7.21-3.09,10.23-10.42,10.24C164.87,469.19,134.23,469.16,103.58,469.16z M103.04,452.08c27.15,0,54.29-0.06,81.44,0.07
			c3.44,0.02,4.54-0.88,4.49-4.42c-0.2-14.15-0.21-28.31,0-42.47c0.05-3.63-1.17-4.36-4.54-4.35c-53.96,0.1-107.92,0.1-161.88-0.01
			c-3.46-0.01-4.53,0.85-4.47,4.4c0.21,13.99,0.25,27.98-0.02,41.97c-0.08,4.07,1.23,4.91,5.04,4.89
			C49.75,452.01,76.4,452.08,103.04,452.08z"/>
		<path class="st5" d="M52.38,34.15c13.48,0,26.96-0.02,40.45,0.01c7.56,0.02,10.73,2.99,10.76,10.53c0.1,21.3,0.1,42.61,0.01,63.91
			c-0.03,7.98-2.96,10.96-10.87,10.99c-26.96,0.09-53.93,0.08-80.89,0c-7.86-0.02-10.7-3.1-10.71-11.07
			c-0.02-21.14-0.02-42.28,0-63.42c0.01-7.91,2.99-10.93,10.81-10.95C25.41,34.13,38.9,34.15,52.38,34.15z M52.61,51.21
			c-9.98,0-19.96,0.12-29.93-0.07c-3.3-0.06-4.66,0.6-4.6,4.3c0.22,14.3,0.16,28.6,0.03,42.9c-0.03,2.92,0.63,4.08,3.83,4.06
			c20.12-0.13,40.24-0.14,60.36,0.01c3.4,0.03,4.13-1.19,4.1-4.31c-0.14-14.13-0.21-28.27,0.04-42.4c0.07-3.98-1.39-4.64-4.9-4.56
			C71.9,51.34,62.25,51.21,52.61,51.21z"/>
		<path class="st12" d="M256.92,477.86c-8.5,0-8.5,0-8.5-8.69c0-8.39,0-8.39,8.32-8.39c9,0,9,0,9,9.2
			C265.74,477.86,265.74,477.86,256.92,477.86z"/>
		<path class="st9" d="M223.05,294.16c0.2-18.82-5.47-34.14-18.09-46.69c-2.97-2.95-6.16-5.66-9.81-7.67c-3.23-1.77-4.06-2.8-1-6.1
			c11.18-12.06,14.73-26.39,9.64-42.09c-5.06-15.61-16.02-25.33-32.21-28.82c-17.76-3.82-36.32,4.67-45.45,20.72
			c-9.02,15.85-6.89,36.5,5.65,49.57c3.46,3.61,2.76,4.65-1.02,7.13c-15.94,10.51-25.02,25.39-26.89,44.51
			c-0.24,2.48-0.43,4.97-0.66,7.45c-0.01,0.16-0.13,0.3-0.23,0.51c-1.79,0.37-2.61-1.13-3.61-2.08
			c-16.21-15.29-25.71-34.07-29.13-56.04c-0.51-3.26,0.33-4.3,3.78-4.32c12.68-0.08,12.56-0.21,12.45-12.86
			c-0.03-3.3-0.98-4.49-4.26-4.22c-2.81,0.23-5.68-0.15-8.49,0.1c-3.3,0.3-3.96-1.05-3.5-4.04c2.95-19.09,10.56-36.01,23.6-50.31
			c14.75-16.19,33.1-25.96,54.66-29.68c6.26-1.08,6.3-1,6.31,5.51c0.01,10.33,0.01,10.33,10.38,10.33c6.71,0,6.7,0,6.71-6.52
			c0-10.47,0-10.47,10.32-8.49c37.25,7.14,68.02,39.3,73.66,77.01c0.92,6.13,0.92,6.13-5.12,6.14
			c-10.74,0.02-10.45,0.04-10.87,10.98c-0.19,5.04,1.14,6.46,6.23,6.26c11.03-0.42,11.19-0.09,8.82,10.85
			C250.41,262.12,240.1,279.5,223.05,294.16z"/>
		<path class="st9" d="M205.89,295.39c0.05,10.77,0.03,10.74-10.22,14.52c-6.42,2.37-13.06,3.83-19.78,5
			c-2.9,0.5-4.56-0.16-4.01-3.5c0.05-0.32,0.03-0.67,0-1c-0.35-3.76,1.79-9.24-0.92-10.91c-3.84-2.37-9.37-0.61-14.18-0.73
			c-1.92-0.05-1.98,1.35-1.98,2.75c0,3.5-0.12,7,0.03,10.49c0.1,2.46-0.85,3.29-3.22,2.97c-9.95-1.35-19.5-4.05-28.59-8.37
			c-1.24-0.59-2.33-1.23-2.29-2.88c0.16-7.48-0.75-15.04,0.85-22.41c4.76-21.93,23.96-35.5,46.98-33.4
			c20.13,1.83,36.48,19.76,37.33,40.97C205.97,291.06,205.89,293.22,205.89,295.39z"/>
		<path class="st13" d="M163.04,230.24c-14.15-0.06-25.23-11.21-25.23-25.4c0-14.32,11.49-25.81,25.64-25.66
			c13.86,0.15,25.4,11.76,25.42,25.57C188.88,218.94,177.37,230.3,163.04,230.24z"/>
		<path class="st13" d="M495.85,196.97c0.08,4.45-2.04,7.01-4.27,9.53c-20.81,23.58-41.62,47.16-62.43,70.74
			c-16.62,18.84-33.32,37.62-49.79,56.6c-2.67,3.07-4.07,2.97-6.75,0.15c-7.46-7.83-15.09-15.51-22.96-22.93
			c-3.03-2.85-2.53-4.3,0.31-6.79c35.76-31.4,71.42-62.92,107.11-94.4c7.24-6.39,14.47-12.78,21.71-19.16
			c3.3-2.91,7.04-3.71,11.1-1.97C493.77,190.42,495.56,193.64,495.85,196.97z"/>
		<path class="st13" d="M310.04,392.38c-6.5,0-12.99-0.07-19.49,0.03c-2.8,0.05-4.1-0.34-2.57-3.55c2.63-5.51,3.2-11.45,3.19-17.52
			c-0.01-6.48-0.39-12.96,0.62-19.44c2.81-18.07,16.95-32.52,35.07-35.66c2.32-0.4,4.03,0.01,5.78,1.78
			c10.88,11.03,21.85,21.97,32.86,32.87c1.68,1.66,2.31,3.17,1.89,5.67c-3.31,19.75-19.39,34.51-39.36,35.6
			c-5.98,0.33-11.99,0.05-17.98,0.05C310.04,392.27,310.04,392.32,310.04,392.38z"/>
		<path class="st14" d="M393.3,136.66c-26.65,0-53.3-0.09-79.95,0.09c-4.15,0.03-5.32-1.1-5.29-5.28c0.19-25.15,0.2-50.3-0.01-75.45
			c-0.03-4.1,1.27-4.91,5.07-4.9c53.63,0.11,107.27,0.12,160.9-0.01c3.97-0.01,4.98,1.06,4.95,4.98c-0.18,25.32-0.18,50.64,0,75.95
			c0.03,3.8-1.03,4.73-4.73,4.71C447.27,136.59,420.29,136.66,393.3,136.66z M393.32,119.45c18.98,0,37.97,0,56.95,0
			c11.61,0,11.4-0.01,11.69-11.7c0.11-4.39-1.02-5.54-5.48-5.52c-39.63,0.19-79.26,0.11-118.89,0.11c-12.58,0-12.42,0-12.52,12.45
			c-0.03,3.78,1.09,4.78,4.8,4.75C351.03,119.36,372.18,119.45,393.32,119.45z M418.9,85.3c10.31,0,20.62,0,30.92,0
			c12.11,0,11.94,0,12.12-12.17c0.06-3.9-0.96-5.03-4.95-4.99c-22.61,0.2-45.22,0.1-67.83,0.1c-12.84,0-12.7,0-12.69,12.69
			c0,3.52,1.05,4.5,4.51,4.45C393.63,85.19,406.26,85.3,418.9,85.3z M342.47,85.31c1.33,0,2.66,0,3.99,0
			c13.48,0,13.37,0,12.98-13.33c-0.09-3.22-1.31-3.88-4.17-3.8c-5.81,0.16-11.62,0.05-17.43,0.05c-13.04,0-12.95,0-12.73,13.12
			c0.05,2.96,0.78,4.17,3.91,4.02C333.49,85.14,337.98,85.31,342.47,85.31z"/>
		<path class="st9" d="M103.04,452.08c-26.65,0-53.3-0.07-79.94,0.08c-3.8,0.02-5.11-0.82-5.04-4.89
			c0.27-13.98,0.22-27.98,0.02-41.97c-0.05-3.56,1.02-4.41,4.47-4.4c53.96,0.11,107.92,0.1,161.88,0.01
			c3.37-0.01,4.59,0.72,4.54,4.35c-0.21,14.15-0.2,28.31,0,42.47c0.05,3.55-1.05,4.44-4.49,4.42
			C157.34,452.02,130.19,452.08,103.04,452.08z M133.04,418c-8.49,0-16.99,0-25.48,0c-12.68,0-12.47,0-12.65,12.65
			c-0.06,4.09,1.49,4.5,4.9,4.47c19.82-0.14,39.64-0.07,59.46-0.07c12.96,0,12.86,0,12.68-13.15c-0.04-3.02-0.83-4.02-3.93-3.97
			C156.36,418.11,144.7,418,133.04,418z M56.79,418c-2.99,0-5.99,0-8.98,0c-12.76,0-12.57,0-12.73,12.59
			c-0.05,4,1.37,4.64,4.88,4.55c8.31-0.23,16.64-0.07,24.96-0.07c13.69,0,13.59,0,13.18-13.59c-0.09-3-1.17-3.59-3.83-3.52
			C68.44,418.11,62.61,418,56.79,418z"/>
		<path class="st15" d="M52.61,51.21c9.64,0,19.29,0.14,28.93-0.07c3.51-0.08,4.97,0.59,4.9,4.56c-0.25,14.13-0.17,28.27-0.04,42.4
			c0.03,3.12-0.7,4.34-4.1,4.31c-20.12-0.15-40.24-0.14-60.36-0.01c-3.19,0.02-3.85-1.15-3.83-4.06c0.13-14.3,0.19-28.6-0.03-42.9
			c-0.06-3.7,1.3-4.36,4.6-4.3C32.65,51.33,42.63,51.21,52.61,51.21z M52.31,85.31c4.49,0,8.98-0.09,13.47,0.04
			c2.42,0.07,3.73-0.48,3.58-3.27c-0.19-3.48-0.16-6.99,0-10.47c0.12-2.6-0.85-3.49-3.45-3.43c-5.98,0.15-11.97,0.04-17.96,0.04
			c-13.3,0-13.3,0-12.76,13.47c0.01,0.17,0.02,0.33,0,0.5c-0.29,2.4,0.8,3.22,3.15,3.16C42.99,85.22,47.65,85.31,52.31,85.31z"/>
		<path class="st16" d="M393.32,119.45c-21.15,0-42.3-0.09-63.44,0.08c-3.71,0.03-4.83-0.97-4.8-4.75
			c0.09-12.45-0.06-12.45,12.52-12.45c39.63,0,79.26,0.08,118.89-0.11c4.45-0.02,5.59,1.14,5.48,5.52
			c-0.3,11.7-0.08,11.7-11.69,11.7C431.29,119.45,412.31,119.45,393.32,119.45z"/>
		<path class="st4" d="M418.9,85.3c-12.64,0-25.27-0.11-37.9,0.07c-3.46,0.05-4.51-0.93-4.51-4.45
			c-0.01-12.69-0.15-12.69,12.69-12.69c22.61,0,45.22,0.1,67.83-0.1c3.98-0.03,5,1.09,4.95,4.99c-0.18,12.17-0.02,12.17-12.12,12.17
			C439.51,85.3,429.21,85.3,418.9,85.3z"/>
		<path class="st16" d="M342.47,85.31c-4.48,0-8.98-0.17-13.45,0.06c-3.13,0.16-3.86-1.05-3.91-4.02
			c-0.22-13.12-0.31-13.12,12.73-13.12c5.81,0,11.63,0.12,17.43-0.05c2.85-0.08,4.07,0.57,4.17,3.8
			c0.38,13.34,0.5,13.33-12.98,13.33C345.12,85.31,343.8,85.31,342.47,85.31z"/>
		<path class="st11" d="M133.04,418c11.66,0,23.32,0.1,34.98-0.07c3.1-0.04,3.89,0.95,3.93,3.97c0.19,13.15,0.29,13.15-12.68,13.15
			c-19.82,0-39.64-0.07-59.46,0.07c-3.41,0.02-4.96-0.38-4.9-4.47c0.18-12.65-0.03-12.65,12.65-12.65
			C116.05,418,124.55,418,133.04,418z"/>
		<path class="st5" d="M56.79,418c5.82,0,11.65,0.11,17.47-0.05c2.66-0.07,3.74,0.52,3.83,3.52c0.41,13.59,0.51,13.59-13.18,13.59
			c-8.32,0-16.64-0.16-24.96,0.07c-3.51,0.1-4.93-0.54-4.88-4.55C35.23,418.01,35.04,418,47.8,418C50.8,418,53.79,418,56.79,418z"/>
		<path class="st3" d="M52.31,85.31c-4.66,0-9.32-0.09-13.97,0.04c-2.35,0.06-3.45-0.76-3.15-3.16c0.02-0.16,0.01-0.33,0-0.5
			c-0.54-13.47-0.54-13.47,12.76-13.47c5.99,0,11.98,0.1,17.96-0.04c2.6-0.06,3.57,0.83,3.45,3.43c-0.16,3.49-0.18,6.99,0,10.47
			c0.15,2.79-1.17,3.34-3.58,3.27C61.29,85.22,56.8,85.31,52.31,85.31z"/>
	</g>
</g>
<g class="st7">
	<g class="st8">
		<path class="st2" d="M0.1,304.99c0-11,0-21.99,0-32.99c1.86-2.21,1.35-5.02,1.72-7.53c12.96-87.75,93.9-143.76,170.13-135.31
			c2.74,0.3,4.57-0.29,6.54-2.34c51.02-53.19,112.75-72.73,184.9-57.67c72.76,15.19,133.39,79.21,145.51,152.46
			c0.96,5.8,0.81,11.81,3.01,17.4c0,11.33,0,22.66,0,33.99c-1.15,0.55-0.89,1.66-0.99,2.6c-0.88,8.28-2.27,16.47-4.12,24.59
			c-19.07,83.85-95.97,146.6-181.97,147.55c-56.46,0.63-112.93,0.15-169.4,0.07c-5.15-0.01-10.32-0.48-15.43-1.12
			c-67.02-8.5-120.99-57.77-136.11-123.96C2.53,316.83,2.73,310.6,0.1,304.99z M213.06,137.45c10.58,3.46,19.8,7.63,28.41,12.99
			c2.78,1.73,4.54,1.24,7.04-0.44c27.29-18.36,57.41-25.31,89.84-20.61c73.79,10.7,122.51,81.66,106.51,154.57
			c-14.44,65.79-79.56,109.67-145.73,98.26c-30.93-5.33-56.63-19.94-76.86-43.81c-16.36-19.31-32.25-39.03-48.25-58.65
			c-3.42-4.19-7.35-7.33-12.88-7.66c-6.8-0.41-12.03,2.51-15.18,8.52c-3.37,6.43-2.33,12.57,2.23,18.12
			C165,319.2,181.18,340.22,198.77,360c38.38,43.16,86.66,61.96,144.1,54.05c90.88-12.5,152.54-100.73,133.79-190.32
			c-20.09-95.99-120.44-151.58-212.42-117.62C245.48,113.04,228.72,123.31,213.06,137.45z M202.45,408.45c-0.49-2.01-2-2.6-3.11-3.5
			c-7.25-5.89-14.24-12.08-20.28-19.21c-2.11-2.49-4.28-3.22-7.37-2.7c-7.94,1.34-15.89,1.07-23.88,0.08
			c-41.33-5.14-74.24-36.47-82.32-78.53c-7.55-39.29,12.44-82.05,48.01-101.03c33.7-17.98,67.09-15.24,99.16,4.26
			c32.7,19.88,64.92,40.54,97.37,60.81c8.92,5.57,18.64,3.72,23.54-4.32c4.83-7.91,2.28-17.21-6.45-22.69
			c-33.12-20.78-66.13-41.75-99.47-62.16c-27.4-16.77-57.16-22.75-89.08-17.56C67.97,173.39,19.77,243.71,34.73,313.6
			c12.28,57.35,59.43,98.29,117.88,102.13C169.69,416.85,186.3,414.26,202.45,408.45z"/>
		<path class="st0" d="M511.9,239.02c-2.2-5.59-2.05-11.6-3.01-17.4c-12.12-73.25-72.75-137.27-145.51-152.46
			c-72.15-15.07-133.89,4.47-184.9,57.67c-1.97,2.05-3.8,2.64-6.54,2.34C95.71,120.71,14.77,176.72,1.81,264.47
			c-0.37,2.51,0.14,5.33-1.72,7.53c0-89.09,0.02-178.17-0.08-267.26C0.01,1.24,0.42,0,4.46,0c167.69,0.13,335.38,0.13,503.06,0
			c4.01,0,4.47,1.19,4.46,4.72C511.88,82.82,511.9,160.92,511.9,239.02z"/>
		<path class="st0" d="M0.1,304.99c2.64,5.61,2.43,11.84,3.78,17.74c15.13,66.19,69.09,115.46,136.11,123.96
			c5.11,0.65,10.29,1.12,15.43,1.12c56.47,0.08,112.94,0.55,169.4-0.07c85.99-0.95,162.9-63.7,181.97-147.55
			c1.85-8.12,3.24-16.31,4.12-24.59c0.1-0.94-0.16-2.05,0.99-2.6c0,78.3-0.03,156.6,0.1,234.9c0.01,3.42-0.67,4.1-4.09,4.09
			c-167.94-0.11-335.87-0.11-503.81,0c-3.42,0-4.1-0.67-4.1-4.09C0.13,440.27,0.1,372.63,0.1,304.99z"/>
		<path class="st9" d="M213.06,137.45c15.66-14.14,32.42-24.41,51.19-31.34c91.98-33.96,192.33,21.62,212.42,117.62
			c18.75,89.6-42.91,177.82-133.79,190.32c-57.44,7.9-105.72-10.9-144.1-54.05c-17.59-19.77-33.77-40.79-50.58-61.26
			c-4.56-5.56-5.6-11.69-2.23-18.12c3.15-6.01,8.38-8.93,15.18-8.52c5.53,0.33,9.46,3.47,12.88,7.66
			c16,19.62,31.89,39.34,48.25,58.65c20.23,23.87,45.93,38.48,76.86,43.81c66.17,11.41,131.29-32.47,145.73-98.26
			c16-72.9-32.72-143.87-106.51-154.57c-32.44-4.7-62.56,2.24-89.84,20.61c-2.5,1.68-4.26,2.18-7.04,0.44
			C232.86,145.07,223.63,140.91,213.06,137.45z"/>
		<path class="st9" d="M202.45,408.45c-16.15,5.81-32.76,8.4-49.84,7.28c-58.44-3.84-105.6-44.78-117.88-102.13
			c-14.96-69.89,33.23-140.21,103.85-151.69c31.92-5.19,61.68,0.79,89.08,17.56c33.35,20.41,66.36,41.38,99.47,62.16
			c8.73,5.48,11.28,14.78,6.45,22.69c-4.9,8.04-14.62,9.9-23.54,4.32c-32.46-20.27-64.68-40.93-97.37-60.81
			c-32.07-19.5-65.47-22.24-99.16-4.26c-35.57,18.98-55.56,61.74-48.01,101.03c8.09,42.05,40.99,73.38,82.32,78.53
			c7.99,0.99,15.94,1.26,23.88-0.08c3.09-0.52,5.26,0.21,7.37,2.7c6.04,7.13,13.03,13.32,20.28,19.21
			C200.45,405.86,201.96,406.44,202.45,408.45z"/>
	</g>
</g>
<g class="st7">
	<g class="st8">
		<path class="st1" d="M259.17,511.9c-2.33,0-4.66,0-6.99,0c-1.03-1.69-2.92-1.44-4.43-1.74c-66.96-13.44-133.93-26.83-200.93-40.1
			c-2.82-0.56-4.05-1.56-4.21-4.37c-0.26-4.48-0.75-8.95-1.15-13.42c-3.13-34.79-6.24-69.58-9.4-104.36
			c-3.16-34.78-6.41-69.56-9.57-104.35c-3.16-34.78-6.25-69.58-9.4-104.36C9.88,103.75,6.74,68.3,3.33,32.87
			c-0.75-7.83-0.42-15.82-2.9-23.45c0-2.99-1.17-7.15,0.33-8.66c1.48-1.5,5.65-0.34,8.64-0.34c165.34,0,330.68,0,496.02,0
			c6.48,0,6.48,0,6.48,6.5c0,0.83,0,1.66,0,2.5c-0.95,0.39-0.92,1.25-0.99,2.07c-3.65,39.92-7.32,79.83-10.94,119.75
			c-3.15,34.78-6.22,69.58-9.38,104.36c-3.5,38.43-7.09,76.85-10.59,115.27c-3.46,38.1-6.86,76.2-10.23,114.3
			c-0.25,2.83-1.05,4.28-4.25,4.91c-58.18,11.51-116.35,23.13-174.49,34.88C280.39,507.14,269.55,508.5,259.17,511.9z
			 M277.42,181.62c0,30.12,0.1,60.25-0.11,90.37c-0.03,4.49,1.24,5.75,5.59,5.47c5.8-0.37,11.64-0.09,17.47-0.09
			c17.81,0,35.62,0.09,53.42-0.07c3.51-0.03,4.93,0.95,4.22,4.49c-0.2,0.97-0.18,1.99-0.28,2.98c-2.2,23.85-4.64,47.68-6.43,71.57
			c-0.4,5.3-2.26,6.88-7.09,7.77c-20.75,3.84-41.41,8.14-62.14,12.1c-3.56,0.68-4.84,2.05-4.75,5.82
			c0.28,11.14,0.33,22.31-0.01,33.45c-0.15,4.81,1.73,5.04,5.58,4.25c34.03-6.93,68.06-13.83,102.16-20.44
			c4.14-0.8,5.36-2.45,5.68-6.34c1.63-19.73,3.5-39.43,5.29-59.15c2.83-31.31,5.58-62.63,8.61-93.92c0.39-4.07-0.46-5.03-4.48-5
			c-25.13,0.17-50.26,0.01-75.39,0.17c-3.7,0.02-4.76-0.91-4.74-4.69c0.16-32.45,0.18-64.91-0.02-97.36
			c-0.03-4.19,1.41-4.81,5.08-4.76c14.81,0.19,29.62,0.08,44.44,0.08c13.81,0,27.63-0.04,41.44,0.04c2.51,0.01,3.89-0.33,4.11-3.39
			c0.81-11.28,1.78-22.55,3.04-33.79c0.48-4.33-0.48-5.68-5.12-5.66c-43.44,0.19-86.88,0.16-130.32,0.03
			c-4.06-0.01-5.38,0.98-5.36,5.22C277.5,121.04,277.42,151.33,277.42,181.62z M234.93,253.25c0-53.77-0.06-107.54,0.1-161.3
			c0.01-4.77-0.75-6.75-6.16-6.49c-10.3,0.5-20.64,0.37-30.95,0.04c-4.48-0.14-5.81,1.01-5.8,5.69
			c0.17,57.93,0.11,115.86,0.11,173.79c0,32.96-0.06,65.92,0.08,98.88c0.02,3.73-0.65,5.01-4.63,4.05
			c-7.27-1.75-14.61-3.26-21.99-4.44c-3.38-0.54-4.23-2.02-4.46-5.18c-0.84-11.61-2.09-23.2-2.94-34.81
			c-0.22-3.01-1.54-3.45-4.09-3.43c-11.82,0.1-23.64,0.13-35.46-0.02c-2.92-0.04-3.69,0.89-3.42,3.71
			c2.24,23.52,4.43,47.04,6.48,70.58c0.27,3.06,1.46,4.15,4.41,4.73c34.25,6.71,68.48,13.56,102.7,20.4c6,1.2,6,1.25,6-4.9
			C234.93,360.79,234.93,307.02,234.93,253.25z"/>
		<path class="st9" d="M259.17,511.9c10.39-3.41,21.23-4.77,31.88-6.92c58.14-11.75,116.3-23.37,174.49-34.88
			c3.2-0.63,4-2.09,4.25-4.91c3.37-38.11,6.77-76.21,10.23-114.3c3.49-38.43,7.09-76.85,10.59-115.27
			c3.16-34.78,6.23-69.58,9.38-104.36c3.62-39.92,7.29-79.84,10.94-119.75c0.07-0.82,0.04-1.68,0.99-2.07
			c0,166-0.01,331.99,0.09,497.99c0,3.75-0.84,4.6-4.59,4.59C424.66,511.87,341.91,511.9,259.17,511.9z"/>
		<path class="st9" d="M0.43,9.42c2.47,7.62,2.14,15.62,2.9,23.45c3.41,35.43,6.55,70.88,9.75,106.33
			c3.15,34.79,6.24,69.58,9.4,104.36c3.16,34.78,6.41,69.56,9.57,104.35c3.16,34.78,6.27,69.57,9.4,104.36
			c0.4,4.47,0.89,8.94,1.15,13.42c0.16,2.81,1.4,3.81,4.21,4.37c66.99,13.27,133.96,26.66,200.93,40.1c1.51,0.3,3.4,0.05,4.43,1.74
			c-82.58,0-165.16-0.03-247.74,0.1c-3.42,0.01-4.09-0.67-4.09-4.09C0.45,341.75,0.43,175.58,0.43,9.42z"/>
		<path class="st9" d="M277.42,181.62c0-30.29,0.08-60.58-0.1-90.87c-0.02-4.24,1.29-5.24,5.36-5.22
			c43.44,0.14,86.88,0.16,130.32-0.03c4.64-0.02,5.6,1.33,5.12,5.66c-1.26,11.24-2.23,22.51-3.04,33.79
			c-0.22,3.06-1.6,3.4-4.11,3.39c-13.81-0.08-27.63-0.04-41.44-0.04c-14.81,0-29.63,0.11-44.44-0.08c-3.67-0.05-5.1,0.58-5.08,4.76
			c0.2,32.45,0.18,64.91,0.02,97.36c-0.02,3.79,1.04,4.72,4.74,4.69c25.13-0.16,50.26,0,75.39-0.17c4.01-0.03,4.87,0.93,4.48,5
			c-3.03,31.29-5.78,62.61-8.61,93.92c-1.78,19.71-3.65,39.42-5.29,59.15c-0.32,3.89-1.54,5.53-5.68,6.34
			c-34.09,6.61-68.13,13.52-102.16,20.44c-3.86,0.78-5.73,0.56-5.58-4.25c0.34-11.14,0.28-22.3,0.01-33.45
			c-0.09-3.77,1.19-5.14,4.75-5.82c20.73-3.96,41.39-8.27,62.14-12.1c4.83-0.89,6.7-2.47,7.09-7.77
			c1.79-23.88,4.23-47.72,6.43-71.57c0.09-0.99,0.08-2.01,0.28-2.98c0.72-3.53-0.7-4.52-4.22-4.49
			c-17.81,0.16-35.62,0.07-53.42,0.07c-5.83,0-11.67-0.28-17.47,0.09c-4.35,0.28-5.62-0.98-5.59-5.47
			C277.52,241.87,277.42,211.74,277.42,181.62z"/>
		<path class="st9" d="M234.93,253.25c0,53.77,0,107.54,0,161.3c0,6.15,0,6.1-6,4.9c-34.23-6.84-68.45-13.69-102.7-20.4
			c-2.94-0.58-4.14-1.67-4.41-4.73c-2.05-23.54-4.24-47.06-6.48-70.58c-0.27-2.82,0.5-3.75,3.42-3.71
			c11.82,0.15,23.64,0.11,35.46,0.02c2.56-0.02,3.87,0.42,4.09,3.43c0.85,11.61,2.1,23.2,2.94,34.81c0.23,3.16,1.08,4.64,4.46,5.18
			c7.38,1.17,14.72,2.69,21.99,4.44c3.98,0.96,4.64-0.33,4.63-4.05c-0.14-32.96-0.08-65.92-0.08-98.88
			c0-57.93,0.06-115.86-0.11-173.79c-0.01-4.67,1.31-5.83,5.8-5.69c10.31,0.32,20.66,0.46,30.95-0.04c5.41-0.26,6.17,1.71,6.16,6.49
			C234.87,145.72,234.93,199.48,234.93,253.25z"/>
	</g>
</g>
<g class="st7">
	<g class="st8">
		<path class="st2" d="M30.08,0.12c150.6,0,301.2,0,451.81,0c-0.44,7.64-0.79,15.29-1.34,22.93c-3.17,44.34-6.41,88.67-9.57,133.01
			c-3.16,44.5-6.22,89.01-9.37,133.52c-3.59,50.81-7.29,101.62-10.74,152.45c-0.31,4.52-1.79,6.54-6.16,7.96
			c-52.78,17.18-105.5,34.53-158.19,51.97c-9.56,3.17-19.4,5.57-28.54,9.93c-1,0-2,0-3,0c-5.63-1.98-11.22-4.07-16.89-5.94
			c-56.83-18.72-113.66-37.46-170.56-55.97c-4.4-1.43-6.08-3.46-6.18-7.92c-0.15-6.65-0.82-13.29-1.28-19.94
			c-2.45-34.71-4.89-69.42-7.36-104.13c-2.52-35.37-5.09-70.74-7.61-106.12c-2.48-34.88-4.9-69.76-7.38-104.63
			C35.19,71.53,32.63,35.82,30.08,0.12z M256.54,75.08c-46.81,0-93.61,0.07-140.42-0.12c-4.59-0.02-5.5,1.25-5.16,5.55
			c1.63,20.75,2.95,41.52,4.41,62.28c2.89,41.36,5.87,82.71,8.6,124.08c0.27,4.11,1.44,5.21,5.5,5.2
			c36.48-0.15,72.96-0.09,109.44-0.09c27.98,0,55.97,0,83.95,0.01c2.2,0,4.69-0.8,4.38,3.24c-1.78,23.41-3.42,46.83-4.94,70.26
			c-0.18,2.86-1.75,3.55-3.88,4.25c-19.58,6.45-39.16,12.88-58.69,19.44c-2.53,0.85-4.72,0.8-7.23-0.05
			c-16.85-5.69-33.74-11.23-50.61-16.85c-11.84-3.94-12.01-3.95-12.63-16.22c-0.19-3.7-1.57-4.21-4.78-4.18
			c-16.99,0.14-33.98,0.2-50.97-0.03c-3.96-0.05-4.65,1.14-4.35,4.8c1.41,17.26,2.68,34.53,3.7,51.82c0.19,3.28,1.43,4.49,4.31,5.44
			c38.51,12.75,76.99,25.59,115.45,38.5c2.53,0.85,4.75,0.86,7.23,0.03c38.46-12.9,76.93-25.77,115.43-38.55
			c2.75-0.91,3.83-2.23,4.03-5.2c1.78-26.41,3.74-52.81,5.64-79.22c2.2-30.56,4.24-61.13,6.72-91.66c0.42-5.12-0.9-5.91-5.63-5.9
			c-66.63,0.16-133.26,0.04-199.88,0.23c-4.95,0.01-5.94-1.53-6.2-6.1c-1.26-21.77-2.8-43.53-4.57-65.27
			c-0.36-4.48,0.35-5.85,5.19-5.84c70.46,0.17,140.92,0.06,211.38,0.24c4.44,0.01,5.6-1.35,5.84-5.45
			c0.94-16.46,1.97-32.91,3.42-49.33c0.41-4.69-0.96-5.42-5.23-5.41C349.49,75.14,303.01,75.08,256.54,75.08z"/>
		<path class="st0" d="M30.08,0.12c2.55,35.71,5.11,71.41,7.65,107.12c2.47,34.88,4.9,69.76,7.38,104.63
			c2.52,35.37,5.09,70.74,7.61,106.12c2.47,34.71,4.91,69.42,7.36,104.13c0.47,6.64,1.14,13.28,1.28,19.94
			c0.1,4.45,1.78,6.48,6.18,7.92c56.9,18.51,113.73,37.25,170.56,55.97c5.67,1.87,11.26,3.95,16.89,5.94c-84.96,0-169.93,0-254.89,0
			C0.09,342.79,0.11,173.7,0,4.61c0-3.75,0.83-4.74,4.6-4.6C13.08,0.34,21.58,0.12,30.08,0.12z"/>
		<path class="st0" d="M257.98,511.88c9.15-4.36,18.98-6.76,28.54-9.93c52.69-17.45,105.41-34.8,158.19-51.97
			c4.37-1.42,5.85-3.44,6.16-7.96c3.45-50.82,7.14-101.63,10.74-152.45c3.14-44.5,6.21-89.02,9.37-133.52
			c3.15-44.34,6.4-88.67,9.57-133.01c0.55-7.63,0.9-15.28,1.34-22.93c9.16,0,18.32,0.08,27.47-0.06c2.11-0.03,2.96,0.36,2.54,2.55
			c-0.15,0.8-0.02,1.66-0.02,2.49c0,167.32-0.02,334.63,0.1,501.95c0,3.86-0.51,4.97-4.75,4.96
			C424.14,511.83,341.06,511.88,257.98,511.88z"/>
		<path class="st0" d="M256.54,75.08c46.47,0,92.95,0.06,139.42-0.09c4.28-0.01,5.65,0.72,5.23,5.41
			c-1.45,16.42-2.47,32.87-3.42,49.33c-0.24,4.1-1.4,5.46-5.84,5.45c-70.46-0.17-140.92-0.07-211.38-0.24
			c-4.84-0.01-5.56,1.36-5.19,5.84c1.77,21.74,3.31,43.5,4.57,65.27c0.27,4.57,1.26,6.11,6.2,6.1
			c66.63-0.19,133.26-0.08,199.88-0.23c4.72-0.01,6.05,0.78,5.63,5.9c-2.49,30.53-4.53,61.1-6.72,91.66
			c-1.9,26.41-3.86,52.81-5.64,79.22c-0.2,2.97-1.28,4.29-4.03,5.2c-38.5,12.78-76.97,25.65-115.43,38.55
			c-2.48,0.83-4.7,0.82-7.23-0.03c-38.46-12.91-76.94-25.74-115.45-38.5c-2.88-0.95-4.12-2.16-4.31-5.44
			c-1.02-17.29-2.29-34.56-3.7-51.82c-0.3-3.66,0.4-4.85,4.35-4.8c16.99,0.24,33.98,0.18,50.97,0.03c3.21-0.03,4.6,0.48,4.78,4.18
			c0.62,12.27,0.79,12.28,12.63,16.22c16.87,5.62,33.77,11.16,50.61,16.85c2.51,0.85,4.7,0.9,7.23,0.05
			c19.54-6.56,39.12-12.99,58.69-19.44c2.13-0.7,3.7-1.39,3.88-4.25c1.51-23.43,3.15-46.85,4.94-70.26
			c0.31-4.05-2.18-3.24-4.38-3.24c-27.98-0.02-55.97-0.01-83.95-0.01c-36.48,0-72.96-0.06-109.44,0.09c-4.06,0.02-5.23-1.09-5.5-5.2
			c-2.73-41.37-5.7-82.72-8.6-124.08c-1.45-20.76-2.78-41.54-4.41-62.28c-0.34-4.3,0.57-5.57,5.16-5.55
			C162.93,75.16,209.73,75.08,256.54,75.08z"/>
	</g>
</g>
<g class="st7">
	<g class="st8">
		<path class="st2" d="M32.08,0.11c149.27,0,298.54,0,447.81,0c-2.47,28.02-4.92,56.04-7.4,84.07c-2.86,32.33-5.75,64.66-8.62,96.99
			c-2.79,31.5-5.56,63.01-8.35,94.51c-2.87,32.33-5.76,64.66-8.63,96.99c-2.47,27.85-4.98,55.71-7.33,83.57
			c-0.3,3.54-1.67,4.95-5.13,5.9c-46.46,12.83-92.89,25.77-139.27,38.87c-12.42,3.51-25.07,6.28-37.17,10.87c-1.33,0-2.67,0-4,0
			c-0.97-1.42-2.66-1.32-4.01-1.7c-57.45-16.12-114.92-32.2-172.43-48.12c-3.4-0.94-4.93-2.22-5.23-5.82
			c-1.97-23.89-4.13-47.76-6.23-71.64c-2.8-31.84-5.58-63.67-8.39-95.51c-2.86-32.33-5.76-64.66-8.62-96.99
			c-2.8-31.67-5.58-63.34-8.38-95.01C37.83,64.77,34.95,32.44,32.08,0.11z M256.02,94.2c-45.15,0-90.29,0-135.44,0
			c-1.17,0-2.34,0.07-3.5-0.01c-2.17-0.14-2.9,0.75-2.73,2.95c1.18,15.61,2.35,31.22,3.31,46.84c0.2,3.17,1.49,3.81,4.33,3.74
			c8.99-0.2,17.99-0.2,26.98-0.23c61.3-0.16,122.61-0.29,183.91-0.51c3.06-0.01,3.88,0.66,3.61,3.91
			c-1.36,15.93-2.58,31.87-3.45,47.83c-0.24,4.46-1.48,5.83-6.08,5.87c-66.13,0.65-132.25,1.53-198.38,2.21c-3.98,0.04-5.1,1-4.62,5
			c1.78,14.87,3.37,29.77,4.75,44.69c0.3,3.27,1.34,4.03,4.52,4.01c63.13-0.25,126.27-0.37,189.4-0.52c0.83,0,1.67,0.05,2.5,0
			c1.93-0.13,2.55,0.54,2.32,2.61c-2.71,24.15-5.38,48.31-7.91,72.48c-0.31,2.96-1.9,3.76-4.36,4.42
			c-18.63,4.97-37.25,10.02-55.85,15.09c-2.5,0.68-4.85,0.49-7.34-0.2c-18.12-4.95-36.25-9.91-54.44-14.58
			c-3.74-0.96-4.98-2.75-5.25-6.39c-0.94-12.62-2.16-25.21-3.25-37.82c-0.19-2.14,0.18-4.39-3.22-4.38
			c-16.99,0.08-33.98,0.06-50.98,0.01c-2.16-0.01-3.02,0.78-2.77,2.95c0.38,3.31,0.65,6.63,0.95,9.94
			c2.24,24.71,4.5,49.41,6.65,74.12c0.23,2.64,0.94,4.02,3.78,4.8c36.41,9.94,72.77,20.02,109.13,30.14c2.35,0.66,4.45,0.66,6.8,0
			c35.24-9.79,70.47-19.62,105.8-29.08c5.11-1.37,7.17-3.46,7.62-8.79c3.5-41.47,7.32-82.92,11-124.38
			c4.47-50.41,8.8-100.84,13.51-151.24c0.48-5.14-1.08-5.59-5.36-5.58C346.64,94.25,301.33,94.2,256.02,94.2z"/>
		<path class="st0" d="M257.98,511.87c12.11-4.59,24.75-7.36,37.17-10.87c46.38-13.1,92.81-26.04,139.27-38.87
			c3.46-0.96,4.83-2.36,5.13-5.9c2.35-27.86,4.86-55.72,7.33-83.57c2.87-32.33,5.76-64.66,8.63-96.99
			c2.79-31.5,5.56-63.01,8.35-94.51c2.87-32.33,5.76-64.66,8.62-96.99c2.48-28.02,4.94-56.04,7.4-84.07
			c9.82,0,19.65,0.08,29.47-0.06c2.1-0.03,2.96,0.36,2.54,2.54c-0.15,0.8-0.02,1.66-0.02,2.49c0,167.32-0.02,334.63,0.1,501.95
			c0,3.86-0.51,4.97-4.75,4.96C424.14,511.83,341.06,511.87,257.98,511.87z"/>
		<path class="st0" d="M32.08,0.11c2.87,32.33,5.75,64.66,8.61,96.99c2.8,31.67,5.58,63.34,8.38,95.01
			c2.86,32.33,5.76,64.66,8.62,96.99c2.81,31.83,5.6,63.67,8.39,95.51c2.1,23.88,4.26,47.75,6.23,71.64c0.3,3.6,1.83,4.88,5.23,5.82
			c57.51,15.92,114.97,32,172.43,48.12c1.35,0.38,3.05,0.28,4.01,1.7c-83.3,0-166.59-0.03-249.89,0.1C0.67,511.98,0,511.3,0,507.88
			C0.11,339.96,0.11,172.03,0,4.11c0-3.42,0.65-4.21,4.1-4.1C13.42,0.31,22.75,0.11,32.08,0.11z"/>
		<path class="st9" d="M256.02,94.2c45.31,0,90.62,0.05,135.94-0.08c4.28-0.01,5.84,0.45,5.36,5.58
			c-4.71,50.39-9.04,100.82-13.51,151.24c-3.68,41.46-7.5,82.91-11,124.38c-0.45,5.33-2.51,7.42-7.62,8.79
			c-35.33,9.47-70.56,19.29-105.8,29.08c-2.35,0.65-4.45,0.65-6.8,0c-36.35-10.12-72.72-20.21-109.13-30.14
			c-2.85-0.78-3.55-2.16-3.78-4.8c-2.15-24.71-4.41-49.42-6.65-74.12c-0.3-3.32-0.57-6.64-0.95-9.94c-0.25-2.18,0.61-2.96,2.77-2.95
			c16.99,0.05,33.98,0.07,50.98-0.01c3.4-0.02,3.03,2.23,3.22,4.38c1.09,12.61,2.32,25.2,3.25,37.82c0.27,3.64,1.51,5.43,5.25,6.39
			c18.2,4.67,36.32,9.63,54.44,14.58c2.49,0.68,4.85,0.88,7.34,0.2c18.61-5.07,37.22-10.12,55.85-15.09
			c2.47-0.66,4.05-1.45,4.36-4.42c2.53-24.17,5.2-48.33,7.91-72.48c0.23-2.07-0.38-2.74-2.32-2.61c-0.83,0.06-1.67,0-2.5,0
			c-63.14,0.15-126.27,0.28-189.4,0.52c-3.17,0.01-4.22-0.75-4.52-4.01c-1.38-14.92-2.97-29.82-4.75-44.69c-0.48-4,0.64-4.96,4.62-5
			c66.13-0.67,132.25-1.56,198.38-2.21c4.59-0.04,5.84-1.42,6.08-5.87c0.87-15.96,2.09-31.9,3.45-47.83
			c0.28-3.25-0.54-3.92-3.61-3.91c-61.3,0.22-122.61,0.35-183.91,0.51c-8.99,0.02-17.99,0.03-26.98,0.23
			c-2.84,0.06-4.13-0.57-4.33-3.74c-0.96-15.62-2.13-31.23-3.31-46.84c-0.17-2.2,0.56-3.09,2.73-2.95c1.16,0.08,2.33,0.01,3.5,0.01
			C165.73,94.2,210.87,94.2,256.02,94.2z"/>
	</g>
</g>
<g class="st7">
	<g class="st8">
		<path class="st1" d="M0.08,381.96c0-83.97,0-167.94,0-251.91c1.82-1.18,1.4-3.27,1.79-4.92c3.05-13.14,9.2-24.58,18.61-34.2
			c15.3-15.65,34.04-22.24,55.82-22.21c119.79,0.18,239.57,0.08,359.36,0.09c2.17,0,4.33,0.03,6.5,0.1
			c31.29,1.07,58.28,22.24,66.96,52.34c0.94,3.26,0.85,6.83,2.8,9.8c0,83.64,0,167.27,0,250.91c-1.76,1.39-1.46,3.57-1.9,5.4
			c-2.25,9.35-6.03,18-11.78,25.69c-15.6,20.86-36.57,30.29-62.55,30.25c-119.79-0.18-239.58-0.08-359.36-0.09
			c-2.17,0-4.33-0.04-6.5-0.11c-32.81-1.16-60.49-24.13-67.94-56.21C1.5,385.23,1.89,383.15,0.08,381.96z M216.04,383.09
			c7.3,0,12.05-3.87,15.01-12.24c15.96-45.13,31.92-90.25,47.86-135.39c10.07-28.52,20.18-57.03,30.14-85.59
			c4.13-11.84-4.02-22.47-15.89-20.81c-6.62,0.93-10.34,5.21-12.52,11.4c-17.82,50.64-35.74,101.24-53.63,151.86
			c-8.2,23.19-16.44,46.37-24.57,69.58C198.56,372.98,205.14,383.1,216.04,383.09z M190.07,171.72c-0.32-4.71-3.09-9.31-8.81-11.9
			c-5.79-2.62-12.1-1.45-16.96,3.41c-28.76,28.69-57.5,57.4-86.17,86.18c-6.29,6.32-6.38,15.17-0.14,21.46
			c25.93,26.1,51.99,52.08,78.02,78.09c3.37,3.37,7.48,4.92,12.24,4.42c6.01-0.62,10.32-3.8,12.45-9.4
			c2.45-6.43,0.65-12.07-4.14-16.86c-21.08-21.07-42.07-42.22-63.31-63.12c-3.23-3.18-2.92-4.67,0.1-7.65
			c23.79-23.53,47.38-47.27,71.08-70.9C187.86,182.01,190.22,178.2,190.07,171.72z M321.88,339.38c0.13,0.64,0.27,2.32,0.79,3.87
			c3.75,11.18,16.88,13.69,25.77,4.82c27.82-27.74,55.59-55.55,83.37-83.34c9.03-9.03,9.06-16.83,0.11-25.79
			c-24.13-24.14-48.26-48.27-72.4-72.4c-1.53-1.53-3-3.14-4.68-4.5c-4.67-3.77-9.9-4.57-15.45-2.31c-5.44,2.21-8.36,6.51-9.03,12.21
			c-0.62,5.35,1.72,9.61,5.46,13.34c20.99,20.92,41.84,41.98,62.97,62.76c3.26,3.21,2.85,4.7-0.14,7.66
			c-23.78,23.54-47.37,47.28-71.07,70.91C324.27,329.91,321.91,333.53,321.88,339.38z"/>
		<path class="st9" d="M0.08,381.96c1.81,1.18,1.41,3.26,1.8,4.91c7.45,32.09,35.14,55.05,67.94,56.21c2.16,0.08,4.33,0.11,6.5,0.11
			c119.79,0.01,239.58-0.1,359.36,0.09c25.99,0.04,46.95-9.39,62.55-30.25c5.75-7.68,9.53-16.34,11.78-25.69
			c0.44-1.83,0.14-4,1.9-5.4c0,42.15-0.04,84.3,0.08,126.46c0.01,2.98-0.6,3.58-3.58,3.58c-168.28-0.09-336.56-0.09-504.83,0
			c-2.98,0-3.59-0.6-3.58-3.58C0.12,466.27,0.08,424.12,0.08,381.96z"/>
		<path class="st9" d="M511.92,131.05c-1.94-2.97-1.86-6.54-2.8-9.8c-8.68-30.1-35.67-51.27-66.96-52.34
			c-2.16-0.07-4.33-0.1-6.5-0.1c-119.79,0-239.57,0.09-359.36-0.09c-21.78-0.03-40.52,6.56-55.82,22.21
			c-9.41,9.63-15.56,21.06-18.61,34.2c-0.38,1.65,0.03,3.74-1.79,4.92c0-42.12,0.03-84.25-0.06-126.37C0.01,0.93,0.28,0,3.5,0
			C171.83,0.11,340.17,0.11,508.5,0c3.22,0,3.48,0.94,3.47,3.68C511.89,46.14,511.92,88.6,511.92,131.05z"/>
		<path class="st9" d="M216.04,383.09c-10.9,0-17.48-10.11-13.6-21.19c8.13-23.22,16.37-46.39,24.57-69.58
			c17.89-50.61,35.81-101.22,53.63-151.86c2.18-6.19,5.9-10.47,12.52-11.4c11.87-1.66,20.02,8.96,15.89,20.81
			c-9.96,28.56-20.06,57.07-30.14,85.59c-15.94,45.13-31.9,90.26-47.86,135.39C228.09,379.23,223.34,383.09,216.04,383.09z"/>
		<path class="st6" d="M190.07,171.72c0.16,6.49-2.21,10.29-5.65,13.73c-23.7,23.63-47.29,47.36-71.08,70.9
			c-3.02,2.98-3.33,4.47-0.1,7.65c21.24,20.9,42.24,42.05,63.31,63.12c4.79,4.79,6.59,10.42,4.14,16.86
			c-2.13,5.59-6.44,8.77-12.45,9.4c-4.76,0.49-8.87-1.06-12.24-4.42c-26.03-26.01-52.08-51.99-78.02-78.09
			c-6.24-6.28-6.15-15.14,0.14-21.46c28.66-28.79,57.4-57.5,86.17-86.18c4.87-4.85,11.17-6.02,16.96-3.41
			C186.98,162.41,189.74,167.01,190.07,171.72z"/>
		<path class="st13" d="M321.88,339.38c0.03-5.85,2.38-9.47,5.7-12.77c23.7-23.62,47.29-47.36,71.07-70.91
			c2.99-2.96,3.4-4.45,0.14-7.66c-21.13-20.78-41.98-41.84-62.97-62.76c-3.74-3.73-6.09-7.99-5.46-13.34
			c0.66-5.69,3.59-10,9.03-12.21c5.55-2.25,10.78-1.46,15.45,2.31c1.68,1.35,3.15,2.97,4.68,4.5c24.14,24.13,48.28,48.26,72.4,72.4
			c8.96,8.96,8.92,16.76-0.11,25.79c-27.78,27.79-55.54,55.59-83.37,83.34c-8.89,8.87-22.03,6.36-25.77-4.82
			C322.15,341.7,322.01,340.02,321.88,339.38z"/>
	</g>
</g>
<g class="st7">
	<g class="st8">
		<path class="st0" d="M256.44,525.91c-88.54,0-177.09-0.02-265.63,0.06c-3.3,0-4.81-0.04-4.8-4.35
			c0.16-177.46,0.15-354.91,0.03-532.37c0-3.77,0.96-4.23,4.4-4.23c177.44,0.1,354.88,0.1,532.32-0.02c3.77,0,4.23,0.96,4.23,4.4
			c-0.1,177.46-0.1,354.91,0.02,532.37c0,3.77-0.96,4.23-4.4,4.23C433.88,525.89,345.16,525.91,256.44,525.91z M510.03,256.15
			c0-43.4-0.03-86.79,0.03-130.19c0.01-6.87-0.3-13.73-1.45-20.47C498.27,45,448.58,3.07,387.21,3.04C300.43,3,213.64,3.05,126.86,3
			c-6.7,0-13.37,0.33-19.95,1.36C47.56,13.68,4.16,64.25,4.09,124.4c-0.11,87.85-0.01,175.69-0.06,263.54
			c0,6.17,0.41,12.31,1.39,18.37c9.71,59.82,60.02,102.68,120.67,102.72c87.31,0.07,174.62,0,261.94,0.05
			c6.52,0,13.02-0.36,19.42-1.43c60.38-10.16,102.52-60.03,102.58-121.3C510.06,342.94,510.03,299.55,510.03,256.15z"/>
		<path class="st2" d="M510.03,256.15c0,43.4,0.03,86.79-0.01,130.19c-0.06,61.28-42.2,111.15-102.58,121.3
			c-6.4,1.08-12.89,1.44-19.42,1.43c-87.31-0.05-174.62,0.02-261.94-0.05C65.44,508.98,15.12,466.12,5.42,406.3
			c-0.98-6.05-1.39-12.19-1.39-18.37c0.05-87.85-0.05-175.69,0.06-263.54C4.16,64.25,47.56,13.68,106.91,4.36
			c6.59-1.03,13.25-1.37,19.95-1.36C213.64,3.05,300.43,3,387.21,3.04C448.58,3.07,498.27,45,508.61,105.49
			c1.15,6.74,1.46,13.6,1.45,20.47C509.99,169.36,510.03,212.75,510.03,256.15z M257.04,475.31c43.74,0,87.49,0.1,131.23-0.03
			c49.24-0.15,87.93-38.8,87.99-88.02c0.11-87.49,0.11-174.99,0-262.48c-0.06-49.22-38.78-87.93-88-87.98
			c-87.49-0.11-174.97-0.11-262.46,0c-49.21,0.06-87.94,38.84-87.98,88c-0.08,87.49-0.01,174.99-0.04,262.48
			c0,5.65,0.47,11.23,1.61,16.75c8.78,42.71,43.74,71.22,87.49,71.27C170.26,475.35,213.65,475.31,257.04,475.31z"/>
		<path class="st0" d="M257.04,475.31c-43.39,0-86.78,0.05-130.18-0.01c-43.75-0.06-78.72-28.57-87.49-71.27
			c-1.13-5.51-1.61-11.1-1.61-16.75c0.03-87.49-0.04-174.99,0.04-262.48c0.04-49.16,38.78-87.94,87.98-88
			c87.49-0.11,174.97-0.11,262.46,0c49.23,0.06,87.94,38.76,88,87.98c0.11,87.49,0.11,174.99,0,262.48
			c-0.06,49.21-38.75,87.87-87.99,88.02C344.53,475.41,300.79,475.31,257.04,475.31z M113.69,225.27c0,10.89-0.15,21.78,0.03,32.67
			c0.31,18.39,5.64,35.24,16.28,50.28c26.19,37.03,75.1,43.04,107.51,13.11c17.94-16.56,27.11-37.45,27.78-61.64
			c0.65-23.52,0.17-47.07,0.15-70.6c0-1.56-0.14-3.18-0.53-4.68c-2.17-8.24-9.92-13.56-18.26-12.63
			c-8.44,0.93-14.85,8.05-14.88,16.97c-0.09,22.31,0.02,44.61-0.06,66.92c-0.04,13.01-3.63,24.94-11.73,35.29
			c-16.18,20.66-44.38,20.76-60.68,0.19c-8.16-10.3-11.82-22.2-11.87-35.23c-0.08-22.13,0.02-44.26-0.04-66.39
			c-0.03-10.22-7.27-17.8-16.81-17.82c-9.54-0.02-16.84,7.56-16.89,17.73C113.63,201.38,113.68,213.33,113.69,225.27z
			 M298.95,171.43c-6.54,0.02-11.53,2.87-14.66,8.57c-3.22,5.87-2.93,11.81,0.6,17.49c11.4,18.31,22.79,36.64,34.36,54.85
			c1.76,2.77,1.73,4.68-0.02,7.44c-11.2,17.61-22.18,35.36-33.26,53.05c-1.88,3.01-3.45,6.09-3.61,9.74
			c-0.33,7.74,4.32,14.53,11.64,16.92c7.45,2.44,15.14-0.21,19.65-7.28c8.59-13.45,17.02-27.01,25.35-40.62
			c1.9-3.11,2.8-3.2,4.75-0.02c8.04,13.17,16.26,26.24,24.5,39.29c5.93,9.39,15.98,12.18,24.31,6.89
			c8.32-5.29,10.09-15.46,4.2-24.93c-11.02-17.73-22.03-35.46-33.24-53.07c-1.77-2.79-1.72-4.69,0.03-7.44
			c11.2-17.62,22.18-35.37,33.27-53.05c2.4-3.83,3.94-7.84,3.22-12.44c-1.13-7.27-6.13-12.69-13.02-14.21
			c-7.18-1.58-13.97,1.12-18.12,7.65c-8.28,13.03-16.45,26.12-24.5,39.29c-2.16,3.54-3.32,4.52-5.93,0.18
			c-7.95-13.23-16.3-26.21-24.44-39.33C310.52,174.78,305.77,171.4,298.95,171.43z"/>
		<path class="st17" d="M113.69,225.27c0-11.94-0.06-23.89,0.01-35.83c0.06-10.17,7.35-17.76,16.89-17.73
			c9.53,0.02,16.78,7.6,16.81,17.82c0.06,22.13-0.04,44.26,0.04,66.39c0.05,13.03,3.71,24.93,11.87,35.23
			c16.3,20.57,44.5,20.47,60.68-0.19c8.1-10.35,11.68-22.27,11.73-35.29c0.08-22.31-0.04-44.61,0.06-66.92
			c0.04-8.93,6.44-16.04,14.88-16.97c8.33-0.92,16.09,4.4,18.26,12.63c0.4,1.5,0.53,3.12,0.53,4.68c0.02,23.54,0.5,47.09-0.15,70.6
			c-0.67,24.19-9.84,45.08-27.78,61.64C205.1,351.26,156.2,345.25,130,308.22c-10.64-15.04-15.97-31.89-16.28-50.28
			C113.54,247.05,113.69,236.16,113.69,225.27z"/>
		<path class="st17" d="M298.95,171.43c6.82-0.03,11.57,3.35,15.06,8.97c8.14,13.11,16.5,26.1,24.44,39.33
			c2.6,4.34,3.76,3.35,5.93-0.18c8.05-13.17,16.22-26.26,24.5-39.29c4.15-6.53,10.94-9.23,18.12-7.65
			c6.89,1.52,11.88,6.93,13.02,14.21c0.72,4.59-0.82,8.61-3.22,12.44c-11.09,17.69-22.07,35.44-33.27,53.05
			c-1.75,2.75-1.8,4.65-0.03,7.44c11.2,17.61,22.22,35.34,33.24,53.07c5.89,9.47,4.13,19.64-4.2,24.93
			c-8.33,5.29-18.38,2.5-24.31-6.89c-8.24-13.05-16.45-26.12-24.5-39.29c-1.94-3.18-2.84-3.09-4.75,0.02
			c-8.33,13.62-16.76,27.17-25.35,40.62c-4.51,7.07-12.2,9.72-19.65,7.28c-7.32-2.39-11.97-9.19-11.64-16.92
			c0.16-3.65,1.72-6.73,3.61-9.74c11.08-17.69,22.07-35.43,33.26-53.05c1.75-2.76,1.79-4.66,0.02-7.44
			c-11.57-18.21-22.96-36.53-34.36-54.85c-3.53-5.67-3.83-11.62-0.6-17.49C287.42,174.3,292.41,171.45,298.95,171.43z"/>
	</g>
</g>
<g class="st7">
	<g class="st8">
		<path class="st17" d="M234.72,2.1c13.53,0,27.06,0,40.59,0c0.52,1.19,1.63,0.89,2.55,0.97c10.85,0.94,21.56,2.65,32.22,4.9
			C422.96,31.8,507.62,135.06,508.91,250.43c0.64,56.92-14.54,109.19-49.04,154.46c-59.99,78.71-140.16,112.84-238.5,101.56
			c-51.14-5.86-96.06-27.39-134.38-61.83c-45.28-40.7-72.75-91.27-82.15-151.56c-0.87-5.59-0.51-11.39-2.74-16.76
			c0-13.86,0-27.72,0-41.58c2.02-4.24,1.54-8.89,2.18-13.35c7.33-51.35,27.97-96.63,62.75-135.11
			c39.11-43.27,87.51-70.17,145.07-80.44C219.63,4.48,227.36,4.4,234.72,2.1z M256.09,33.49C134.3,32.56,34.55,131.63,33.51,254.54
			c-1.03,122.09,97.65,221.59,221.16,222.98c121.65,1.37,221.88-98.17,222.83-221.32C478.45,134.12,379.33,34.42,256.09,33.49z"/>
		<path class="st0" d="M2.1,276.29c2.24,5.36,1.87,11.17,2.74,16.76c9.4,60.29,36.87,110.86,82.15,151.56
			c38.31,34.44,83.24,55.97,134.38,61.83c98.34,11.28,178.51-22.85,238.5-101.56c34.5-45.27,49.68-97.55,49.04-154.46
			C507.62,135.06,422.96,31.8,310.07,7.97c-10.66-2.25-21.37-3.96-32.22-4.9c-0.92-0.08-2.03,0.22-2.55-0.97
			c76.88,0,153.76,0.03,230.64-0.1C509.34,2,510,2.67,510,6.06c-0.11,166.63-0.11,333.26,0,499.89c0,3.39-0.66,4.06-4.05,4.05
			c-166.63-0.11-333.26-0.11-499.89,0C2.67,510,2,509.34,2,505.95C2.13,429.4,2.1,352.85,2.1,276.29z"/>
		<path class="st0" d="M234.72,2.1c-7.36,2.31-15.09,2.38-22.62,3.72C154.54,16.09,106.14,42.99,67.03,86.26
			c-34.78,38.48-55.42,83.76-62.75,135.11c-0.64,4.46-0.16,9.11-2.18,13.35C2.1,158.58,2.13,82.44,2,6.3C1.99,2.73,2.73,1.99,6.3,2
			C82.44,2.13,158.58,2.1,234.72,2.1z"/>
		<path class="st9" d="M256.09,33.49c123.25,0.94,222.36,100.64,221.42,222.72c-0.95,123.15-101.18,222.7-222.83,221.32
			c-123.51-1.4-222.19-100.89-221.16-222.98C34.55,131.63,134.3,32.56,256.09,33.49z M431.87,162.26c-0.22-0.2-0.44-0.41-0.67-0.61
			c0,0.26,0,0.51,0,0.77c0.26-0.11,0.52-0.22,0.77-0.33c-1.12,1.13-0.57,2.49-0.47,3.76c1.88,24.34-1.28,48.03-9.26,71.07
			c-21.38,61.75-42.85,123.47-64.25,185.21c-0.57,1.64-1.73,3.21-1.13,5.39c13.43-7.79,25.72-16.93,36.64-27.76
			c47.12-46.76,67.4-103.18,60.05-169.25C450.89,206.37,443.68,183.54,431.87,162.26z M89.11,145.94c5.99,0,11.26,0.03,16.53-0.01
			c16.17-0.1,32.29-1.39,48.42-2.28c5.57-0.31,8.91,2.53,9.34,7.3c0.43,4.69-2.41,8.17-7.87,8.95c-5.38,0.76-10.82,1.18-16.24,1.53
			c-6.22,0.4-6.22,0.3-4.16,6.42c21.03,62.57,42.05,125.14,63.08,187.7c2.37,7.05,4.8,14.08,7.2,21.14
			c1.39-0.58,1.42-1.47,1.67-2.23c13.86-41.54,27.7-83.09,41.63-124.62c0.68-2.04,0.54-3.75-0.16-5.68
			c-9.63-26.28-19.25-52.56-28.74-78.88c-1.01-2.8-2.51-3.68-5.36-3.85c-5.92-0.33-11.84-0.91-17.7-1.77
			c-4.63-0.68-6.87-3.83-6.61-8.32c0.27-4.56,3.3-7.6,7.97-7.71c2.8-0.07,5.6,0.15,8.4,0.36c16.78,1.24,33.57,2.1,50.41,1.92
			c15.84-0.17,31.62-1.48,47.43-2.27c5.35-0.27,8.43,2.54,8.8,7.26c0.38,4.84-2.02,8.1-7.24,8.87c-5.7,0.84-11.47,1.27-17.22,1.67
			c-5.71,0.39-5.71,0.27-3.91,5.63c18.66,55.55,37.31,111.11,55.98,166.65c4.64,13.8,9.32,27.58,14.24,42.1
			c0.69-1.52,1.12-2.22,1.35-2.98c9.23-30.57,18.52-61.13,27.63-91.74c5.41-18.17,8.51-36.53,4.32-55.55
			c-3.58-16.22-11.3-30.47-19.99-44.35c-5.08-8.11-9.81-16.42-12.38-25.74c-6.18-22.44,6.15-43.59,27.42-47.1
			c1.83-0.3,3.69-0.44,5.89-0.7C300.62,25.47,154.63,43.43,89.11,145.94z M259.18,273.49c-0.6,1.17-0.79,1.45-0.89,1.75
			c-19.37,56.18-38.7,112.37-58.17,168.52c-1.17,3.37,0.38,3.78,2.85,4.45c38.62,10.37,76.93,9.26,114.98-2.92
			c2.54-0.81,3.61-1.43,2.39-4.72c-14.52-39.21-28.78-78.52-43.12-117.8C271.3,306.55,265.35,290.34,259.18,273.49z M168.13,434.62
			c-31.72-86.9-63.17-173.09-94.93-260.1C28.3,275.16,74.73,390.75,168.13,434.62z"/>
		<path class="st2" d="M89.11,145.94c65.51-102.51,211.51-120.47,300.14-38.26c-2.2,0.26-4.06,0.4-5.89,0.7
			c-21.27,3.51-33.61,24.66-27.42,47.1c2.57,9.31,7.3,17.63,12.38,25.74c8.69,13.88,16.4,28.12,19.99,44.35
			c4.2,19.01,1.09,37.37-4.32,55.55c-9.11,30.61-18.4,61.17-27.63,91.74c-0.23,0.76-0.65,1.46-1.35,2.98
			c-4.91-14.53-9.6-28.31-14.24-42.1c-18.67-55.55-37.32-111.1-55.98-166.65c-1.8-5.36-1.8-5.24,3.91-5.63
			c5.75-0.39,11.52-0.83,17.22-1.67c5.22-0.77,7.62-4.02,7.24-8.87c-0.37-4.72-3.45-7.53-8.8-7.26c-15.81,0.79-31.59,2.1-47.43,2.27
			c-16.84,0.18-33.63-0.68-50.41-1.92c-2.79-0.21-5.6-0.43-8.4-0.36c-4.68,0.11-7.71,3.15-7.97,7.71c-0.26,4.49,1.98,7.64,6.61,8.32
			c5.86,0.86,11.78,1.43,17.7,1.77c2.85,0.16,4.35,1.04,5.36,3.85c9.49,26.33,19.11,52.61,28.74,78.88
			c0.71,1.93,0.85,3.64,0.16,5.68c-13.92,41.52-27.77,83.07-41.63,124.62c-0.25,0.76-0.29,1.65-1.67,2.23
			c-2.41-7.06-4.84-14.09-7.2-21.14c-21.03-62.57-42.05-125.14-63.08-187.7c-2.06-6.12-2.06-6.02,4.16-6.42
			c5.43-0.35,10.86-0.77,16.24-1.53c5.46-0.78,8.3-4.26,7.87-8.95c-0.43-4.77-3.77-7.6-9.34-7.3c-16.14,0.89-32.25,2.18-48.42,2.28
			C100.38,145.97,95.1,145.94,89.11,145.94z"/>
		<path class="st17" d="M259.18,273.49c6.17,16.86,12.11,33.07,18.03,49.28c14.34,39.28,28.6,78.59,43.12,117.8
			c1.22,3.29,0.16,3.91-2.39,4.72c-38.05,12.18-76.36,13.29-114.98,2.92c-2.47-0.66-4.02-1.08-2.85-4.45
			c19.47-56.15,38.8-112.34,58.17-168.52C258.39,274.93,258.58,274.65,259.18,273.49z"/>
		<path class="st17" d="M168.13,434.62C74.73,390.75,28.3,275.16,73.2,174.52C104.96,261.52,136.42,347.72,168.13,434.62z"/>
		<path class="st11" d="M431.89,162.24c11.8,21.3,19,44.13,21.68,68.26c7.35,66.06-12.93,122.49-60.05,169.25
			c-10.91,10.83-23.2,19.97-36.64,27.76c-0.61-2.18,0.56-3.75,1.13-5.39c21.4-61.74,42.86-123.46,64.25-185.21
			c7.98-23.03,11.14-46.73,9.26-71.07c-0.1-1.27-0.65-2.63,0.47-3.76L431.89,162.24z"/>
		<path class="st11" d="M431.98,162.09c-0.26,0.11-0.52,0.22-0.77,0.33c0-0.26,0-0.51,0-0.77c0.22,0.2,0.44,0.41,0.67,0.6
			C431.89,162.24,431.98,162.09,431.98,162.09z"/>
	</g>
</g>
<g class="st7">
	<g class="st8">
		<path class="st0" d="M256.03,511.91c-83.95,0-167.89-0.02-251.84,0.08C0.96,512,0,511.61,0,508C0.12,339.94,0.12,171.88,0.02,3.82
			c0-3.21,0.83-3.79,3.87-3.78C171.95,0.12,340.01,0.13,508.06,0c3.75,0,3.91,1.19,3.91,4.27c-0.08,167.89-0.08,335.79,0.03,503.68
			c0,3.49-0.79,4.06-4.13,4.05C423.92,511.88,339.98,511.91,256.03,511.91z M238.16,113.91c0-18.82-0.01-37.63,0.01-56.45
			c0-2.21,0.35-4.29-3.13-4.21c-21.47,0.47-43-1.25-64.39,0.8c-30.89,2.96-54.69,31.04-53.34,61.89c1.4,32.08,27.43,57.86,59,58.19
			c19.15,0.2,38.3-0.04,57.45,0.12c3.44,0.03,4.52-0.81,4.49-4.39C238.07,151.21,238.16,132.56,238.16,113.91z M259.63,113.54
			c0,18.48,0.12,36.95-0.1,55.43c-0.05,4.06,0.87,5.38,5.16,5.31c15.97-0.27,31.96-0.07,47.94-0.13c5.32-0.02,10.73,0.31,15.95-0.51
			c32.72-5.15,53.96-32.69,51.43-66.3c-2.25-29.9-29.18-53.85-60.91-54.02c-18.14-0.1-36.29,0.13-54.43-0.13
			c-4.37-0.06-5.16,1.47-5.12,5.42C259.73,76.92,259.63,95.23,259.63,113.54z M238.16,256.52c0-18.81,0-37.61,0.01-56.42
			c0-2.34,0.46-4.57-3.32-4.52c-20.97,0.24-41.97-0.44-62.9,0.54c-31.14,1.47-57.15,32.14-54.58,63.13
			c2.75,33.21,27.61,56.6,61.05,57.08c18.47,0.27,36.95-0.04,55.42,0.14c3.58,0.03,4.43-1.12,4.4-4.53
			C238.08,293.47,238.16,274.99,238.16,256.52z M238.16,374.94c0-12.39-0.14-22.55,0.08-32.7c0.08-3.45-0.84-4.51-4.4-4.48
			c-18.47,0.18-36.95,0.06-55.42,0.09c-36.99,0.06-64.51,30.78-60.5,67.52c3.2,29.39,28.4,52.32,58.54,53.28
			c28.95,0.92,55.46-20.52,60.64-49.1C239.31,397.34,237.54,384.98,238.16,374.94z M319.95,316.31
			c33.45,0.01,60.25-26.7,60.34-60.15c0.09-33.45-26.61-60.33-60.04-60.45c-33.67-0.13-60.65,26.76-60.6,60.39
			C259.71,289.53,286.51,316.3,319.95,316.31z"/>
		<path class="st2" d="M238.16,113.91c0,18.65-0.1,37.3,0.08,55.95c0.03,3.57-1.05,4.42-4.49,4.39c-19.15-0.16-38.3,0.08-57.45-0.12
			c-31.58-0.33-57.6-26.11-59-58.19c-1.35-30.86,22.45-58.93,53.34-61.89c21.4-2.05,42.93-0.33,64.39-0.8
			c3.48-0.08,3.13,2,3.13,4.21C238.16,76.28,238.16,95.09,238.16,113.91z"/>
		<path class="st2" d="M259.63,113.54c0-18.31,0.11-36.62-0.08-54.93c-0.04-3.95,0.75-5.48,5.12-5.42
			c18.14,0.25,36.29,0.02,54.43,0.13c31.72,0.18,58.66,24.13,60.91,54.02c2.52,33.62-18.71,61.15-51.43,66.3
			c-5.21,0.82-10.63,0.49-15.95,0.51c-15.98,0.06-31.96-0.14-47.94,0.13c-4.28,0.07-5.2-1.25-5.16-5.31
			C259.75,150.49,259.63,132.02,259.63,113.54z"/>
		<path class="st1" d="M238.16,256.52c0,18.47-0.08,36.95,0.07,55.42c0.03,3.41-0.82,4.56-4.4,4.53
			c-18.47-0.18-36.95,0.12-55.42-0.14c-33.43-0.48-58.3-23.87-61.05-57.08c-2.56-30.99,23.44-61.66,54.58-63.13
			c20.93-0.99,41.93-0.3,62.9-0.54c3.78-0.04,3.33,2.18,3.32,4.52C238.16,218.9,238.16,237.71,238.16,256.52z"/>
		<path class="st2" d="M238.16,374.94c-0.62,10.04,1.15,22.39-1.07,34.62c-5.18,28.57-31.7,50.02-60.64,49.1
			c-30.13-0.96-55.33-23.9-58.54-53.28c-4-36.74,23.51-67.46,60.5-67.52c18.47-0.03,36.95,0.09,55.42-0.09
			c3.56-0.03,4.47,1.03,4.4,4.48C238.02,352.39,238.16,362.55,238.16,374.94z"/>
		<path class="st2" d="M319.95,316.31c-33.44-0.01-60.24-26.78-60.29-60.21c-0.05-33.64,26.92-60.52,60.6-60.39
			c33.43,0.12,60.13,27.01,60.04,60.45C380.2,289.61,353.4,316.33,319.95,316.31z"/>
	</g>
</g>
</svg>
