<svg xmlns="http://www.w3.org/2000/svg" height="40" viewBox="0 96 960 960" width="40"><path d="M42 936v-98.666Q42 803.667 58.333 779 74.667 754.334 104 740.001q53-26 115.333-43.334 62.334-17.333 140-17.333 77.667 0 140 17.333 62.334 17.334 115.334 43.334Q644 754.334 660.333 779q16.334 24.667 16.334 58.334V936H42Zm66.666-66.666H610v-32q0-13.667-7.5-23Q595 805 584 800q-40.667-18.666-94.833-36.333Q435 746 359.333 746T229.5 763.667Q175.333 781.334 134.666 800q-11 5-18.5 14.334-7.5 9.333-7.5 23v32ZM359.333 626q-66 0-109.666-44.333Q206 537.334 206 472.667h-10q-8.333 0-14.167-5.833Q176 461 176 452.667t5.833-14.167q5.834-5.833 14.167-5.833h10q0-41.666 20.667-75 20.666-33.333 54-53.666v38.666q0 7 4.833 11.834 4.833 4.833 11.833 4.833 7.667 0 12.167-4.833 4.5-4.834 4.5-11.834v-52.666q8.333-2.333 21-3.833t25-1.5q12.333 0 25 1.5t21 3.833v52.666q0 7 4.5 11.834 4.5 4.833 12.167 4.833 7 0 11.833-4.833 4.833-4.834 4.833-11.834v-38.666q33.334 20.333 53.333 53.666 20 33.334 20 75h10q8.334 0 14.167 5.833 5.833 5.834 5.833 14.167t-5.833 14.167q-5.833 5.833-14.167 5.833h-10q0 64.667-43.666 109Q425.333 626 359.333 626Zm0-66.666q39 0 62.834-24.5Q446 510.334 446 472.667H272.666q0 37.667 23.834 62.167 23.833 24.5 62.833 24.5Zm301.334 135.999L657.333 666q-6.666-3.333-13.5-7.5-6.833-4.167-12.5-9.167L604.667 662l-21.334-33.333L608 609.333q-1.333-3.666-1.333-7v-14q0-3.333 1.333-7L583.333 562l21.334-33.333 26.666 12.666q6-4.666 12.667-9 6.667-4.333 13.333-7.666l3.334-29.334h40L704 524.667q6.667 3.333 13.333 7.666 6.667 4.334 12.667 9l26.667-12.666L778 562l-24.667 19.333q1.334 3.667 1.334 7v14q0 3.334-1.334 7L778 628.667 756.667 662 730 649.333q-5.667 5-12.5 9.167T704 666l-3.333 29.333h-40Zm20-64.666q14.666 0 25-10.334Q716 610 716 595.333q0-14.666-10.333-25-10.334-10.333-25-10.333-14.667 0-25 10.333-10.334 10.334-10.334 25 0 14.667 10.334 25 10.333 10.334 25 10.334ZM763.334 484l-8.667-37.334Q745 443 735.5 436.833q-9.5-6.167-16.167-13.5L676 438.666l-22.666-39.333L688 370.667q-2-5-3-10T684 350q0-5.667 1-10.667t3-10l-34.666-28.667L676 261.333l43.333 15.334q6.667-7.334 16.167-13.834 9.5-6.5 19.167-9.5L763.334 216h43.999L816 253.333q9.667 3 19.167 9.5 9.5 6.5 16.166 13.834l43.334-15.334 22.666 39.333-34.666 28.667q2 5 3 10t1 10.667q0 5.667-1 10.667t-3 10l34.666 28.666-22.666 39.333-43.334-15.333q-6.666 7.333-16.166 13.5T816 446.666L807.333 484h-43.999Zm21.999-78.667q23.667 0 39.501-15.833 15.833-15.833 15.833-39.5t-15.833-39.5Q809 294.666 785.333 294.666q-23.666 0-39.5 15.834Q730 326.333 730 350t15.833 39.5q15.834 15.833 39.5 15.833ZM108.666 869.334H610 108.666Z"/></svg>