<svg xmlns="http://www.w3.org/2000/svg" height="40" viewBox="0 96 960 960" width="40"><path d="M560 916q-7.256 0-12.09-4.833-4.833-4.834-4.833-12.09 0-7.41 4.833-12.167 4.834-4.756 12.09-4.756 60.898 0 103.526-24.731 42.628-24.731 42.628-61.423 0-27.949-29.641-51.744-29.641-23.795-82.436-36.41l27.41-27.154q59.59 16.692 89.052 47.436Q740 758.872 740 796q0 57.436-56.282 88.718Q627.436 916 560 916ZM245.103 630.051q-54.641-15.769-79.872-41.218Q140 563.385 140 536q0-31.436 26.384-56.141 26.385-24.705 105.206-57.244 66.795-27.718 89.141-45.397 22.346-17.679 22.346-41.064 0-27.385-27.064-46.846-27.064-19.462-76.013-19.462-28.385 0-51.59 8.718-23.205 8.718-39.666 25.179-4.641 4.642-11.385 5.411-6.744.769-12.103-3.103-6.025-4.564-6.384-11.359t3.769-12.513q14.846-19.769 47.679-32.974Q243.154 236 280 236q60.872 0 98.897 28.269 38.026 28.269 38.026 71.885 0 33.923-27.385 60.051-27.384 26.128-104.358 57.41-64.77 26.539-88.052 44.565-23.282 18.025-23.282 37.82 0 18.795 24.269 35.91 24.27 17.116 74.373 31.526l-27.385 26.615ZM723.282 453.18l-90.461-90.462 36.051-36.051q13.59-13.59 29.936-13.975 16.346-.384 29.859 13.205l31.436 31.436q13.589 13.513 13.205 29.859-.385 16.346-13.975 29.936l-36.051 36.052ZM193.077 892.923v-89.948l376.257-376.77 90.461 90.462-376.77 376.256h-89.948Z"/></svg>